<?xml version='1.0' encoding='utf-8'?>
<svg xmlns="http://www.w3.org/2000/svg" width="516.43256mm" height="511.58087mm" viewBox="0 0 516.43256 511.58087" version="1.1" id="svg5" xml:space="preserve"><defs id="defs2" /><g id="layer1"><path style="fill:#000000;stroke-width:1" d="m 243.93509999999878 511.3673999999992 c -17.745,-1.3168 -39.2202,-5.004 -53.4532,-9.175 -35.4768,-10.3992 -67.3237,-27.0423 -97.576,-50.9936 -16.3268,-12.9249 -34.1092,-31.8491 -44.9934,-47.8816 -4.2106,-6.203 -12.3266,-18.8591 -16.3047,-25.4257 -15.9025,-26.25 -27.9206,-64.2657 -31.1053,-98.3915 -0.67,-7.1771 -0.67,-41.9663 0,-50.3434 1.2452,-15.5697 1.6386,-18.6002 3.3125,-25.4621 l 1.2331,-5.0547 0.2458,10.1083 c 0.2369,9.7172 0.9091,16.4612 1.8987,19.0652 0.5587,1.47 0.5686,1.4513 3.0502,-5.9253 7.6807,-22.8317 16.8745,-38.9447 30.2347,-52.9871 3.6299,-3.815 3.9164,-4.2348 4.3837,-6.4145 0.6633,-3.0899 4.1412,-13.6071 6.4277,-19.4377 1.0072,-2.5653 3.6398,-8.3385 5.8515,-12.828 6.949,-14.1074 14.1912,-25.3111 24.1276,-37.3258 2.1246,-2.5687 4.1004,-4.971 4.3902,-5.338 0.4629,-0.5862 0.3383,-0.8959 -1.016,-2.5224 -2.8287,-3.393 -4.0056,-5.9727 -4.7671,-10.4444 -0.3835,-2.2547 -0.7857,-4.1875 -0.8926,-4.2944 -0.2391,-0.2402 -0.5157,0.6909 -0.8595,2.8993 -0.3152,2.0265 -1.1009,2.8585 -8.4786,8.992 -9.7513,8.105 -16.9537,16.2519 -24.9342,28.2071 -10.3497,15.5047 -20.2928,35.3038 -27.5261,54.8141 -4.2635,11.4991 -7.7523,24.6918 -8.4289,31.8767 -0.2215,2.3527 -0.4232,8.6504 -0.4485,13.995 -0.022,5.3456 -0.1653,10.2439 -0.3097,10.8852 -0.2568,1.1362 -0.2711,1.1229 -0.5488,-0.5311 -0.1576,-0.9345 -0.4496,-6.9843 -0.6501,-13.4451 -0.2006,-6.4609 -0.4739,-12.0324 -0.6072,-12.3807 -0.5609,-1.4601 4.3197,-17.8728 9.1551,-30.789 7.8769,-21.0387 17.8685,-41.013 27.9085,-55.786 8.9006,-13.098 15.3273,-20.8217 28.9377,-34.7804 4.7153,-4.8365 6.625,-6.5445 7.4107,-6.6316 0.6899,-0.077 1.8359,-0.9146 3.2927,-2.4122 2.3615,-2.4265 4.8211,-4.3803 5.5132,-4.3803 0.2281,0 0.4143,-0.2425 0.4143,-0.5378 0,-0.2964 0.3063,-0.6491 0.681,-0.7846 0.3736,-0.1344 1.0304,-0.4639 1.4579,-0.7295 1.6508,-1.0292 3.1175,-2.0221 3.3037,-2.2359 0.1102,-0.1234 0.8551,-0.6259 1.6629,-1.1163 0.8077,-0.4904 1.6816,-1.0998 1.9439,-1.3532 0.2611,-0.2535 1.3245,-0.9543 2.3615,-1.5571 1.0369,-0.6017 2.2182,-1.427 2.6238,-1.8326 0.4066,-0.4066 0.7967,-0.6942 0.8683,-0.6413 0.1521,0.1146 2.95,-1.5901 6.2636,-3.8161 1.2948,-0.8695 3.4029,-2.1533 4.6856,-2.853 1.2827,-0.6998 2.5951,-1.4998 2.9158,-1.7775 0.3207,-0.2777 1.4579,-0.9741 2.5268,-1.5472 1.0689,-0.5741 2.4684,-1.3763 3.1098,-1.784 0.6413,-0.4067 2.4783,-1.4436 4.0817,-2.3043 1.6044,-0.8595 4.2282,-2.2788 5.8316,-3.1549 3.5803,-1.9538 17.4287,-8.9304 19.8266,-9.9871 6.9655,-3.069 8.8201,-3.8646 12.4401,-5.3303 19.8024,-8.0245 36.9964,-12.3872 60.4507,-15.3405 19.5357,-2.4596 43.757,-2.8331 62.9775,-0.9719 12.633,1.2243 23.3221,3.3819 39.2632,7.9287 19.194,5.4723 30.7967,9.8681 45.6788,17.3042 21.668,10.8279 33.1846,18.0403 48.3984,30.3118 2.1389,1.7246 3.9759,3.2244 4.0828,3.3313 0.1102,0.1102 1.5064,1.3289 3.1098,2.7152 1.6033,1.3852 3.0028,2.6205 3.1097,2.7439 0.1102,0.1234 0.5774,0.4849 1.0458,0.8045 1.8436,1.2584 12.8919,12.1007 17.3857,17.0628 8.5083,9.3954 11.3867,12.9746 19.5391,24.2963 11.7018,16.254 20.2762,33.0888 28.9002,56.7458 8.5446,23.4378 13.9707,43.7019 15.7207,58.7129 2.0794,17.8343 1.7378,48.545 -0.7461,67.0603 -3.2838,24.4802 -9.8659,47.5852 -20.1682,70.796 -15.2149,34.2789 -40.7883,67.3843 -70.4246,91.1636 -11.6335,9.3359 -25.0411,18.4216 -37.9022,25.6847 -6.0961,3.4426 -19.733,10.2792 -23.883,11.9729 -1.7246,0.7031 -5.4977,2.248 -8.3849,3.4315 -10.1755,4.1699 -26.6775,9.3458 -38.4851,12.0688 -11.4495,2.6403 -25.1117,4.7164 -37.3843,5.6796 -7.1705,0.5631 -28.1079,0.7978 -33.7566,0.379 z m 25.2681,-3.696 c 9.9343,-0.3768 13.1653,-1.2375 16.6431,-4.4299 0.7085,-0.6502 1.3642,-1.1824 1.4579,-1.1824 0.088,0 0.4926,-0.3052 0.8871,-0.6799 0.3945,-0.3736 1.4777,-1.2926 2.4078,-2.0409 2.0794,-1.6716 9.24,-8.8818 9.7491,-9.8163 0.7725,-1.4149 -0.3791,-0.5642 -3.9473,2.9158 -5.6145,5.4757 -8.7364,8.0664 -9.7204,8.0664 -0.205,0 -0.3714,0.1488 -0.3714,0.3306 0,0.1818 -1.135,0.9069 -2.5213,1.61 l -2.5202,1.2805 -9.045,0.3592 c -17.3857,0.6921 -34.4541,-0.1895 -50.9914,-2.6315 -27.7486,-4.0993 -55.3199,-12.8996 -69.1959,-22.0889 -2.1169,-1.4006 -3.9979,-2.4552 -4.1797,-2.3428 -0.1819,0.1124 -0.3306,-0.066 -0.3306,-0.4022 0,-0.3328 -0.1422,-0.6061 -0.3152,-0.6061 -0.1741,0 -0.6546,-0.3108 -1.07,-0.691 -2.3803,-2.1852 -5.7347,-4.7583 -5.9385,-4.5555 -0.13,0.13 0.8331,1.2331 2.14,2.4508 1.3058,1.2165 3.4569,3.221 4.7792,4.4541 9.2092,8.5833 21.2493,14.6595 40.5822,20.4801 19.5666,5.8911 37.6962,8.8808 58.9532,9.7227 7.3964,0.2931 10.1502,0.2678 22.5473,-0.2028 z m 33.026,-1.967 c 25.6373,-3.2629 56.9332,-14.6396 84.1827,-30.6006 9.337,-5.469 26.6996,-17.4353 30.0871,-20.7368 0.5113,-0.4981 1.5174,-1.2695 2.2348,-1.7136 0.7173,-0.443 1.3047,-0.9664 1.3047,-1.1625 0,-0.1973 0.1983,-0.3571 0.4419,-0.3571 0.2424,0 0.8463,-0.4375 1.3411,-0.9719 0.4959,-0.5345 1.0017,-0.9719 1.124,-0.9719 0.1234,0 0.8474,-0.5687 1.6089,-1.264 0.7614,-0.6942 1.6309,-1.4028 1.9328,-1.5736 0.302,-0.1719 0.5488,-0.5224 0.5488,-0.7802 0,-0.2579 0.5014,-0.6909 1.1141,-0.962 0.6116,-0.2711 2.2271,-1.653 3.5891,-3.0712 2.9742,-3.0977 2.9081,-3.166 -3.0833,-3.2067 -3.0492,-0.022 -3.9781,0.088 -3.8569,0.4584 0.099,0.3019 1.2959,0.5785 3.1626,0.7317 1.6508,0.1355 3.0778,0.324 3.1715,0.4176 0.1907,0.1907 -3.8029,4.0707 -5.1748,5.0261 -0.4849,0.3383 -1.5714,1.2518 -2.4122,2.0309 -0.8419,0.778 -1.6684,1.4172 -1.8381,1.4205 -0.1697,0 -1.0601,0.7019 -1.9781,1.5548 -0.9179,0.8519 -1.8413,1.5494 -2.0529,1.5494 -0.2116,0 -0.4849,0.2634 -0.6083,0.5841 -0.1223,0.3206 -0.4672,0.5829 -0.7648,0.5829 -0.2975,0 -0.541,0.2722 -0.541,0.6061 0,0.3581 -0.1841,0.4926 -0.4485,0.3295 -0.2458,-0.1532 -0.6392,-0.022 -0.875,0.2821 -0.5444,0.713 -5.576,4.3043 -12.2837,8.7661 -23.9942,15.9621 -51.6735,28.3504 -78.3576,35.0713 -9.1453,2.3031 -23.6483,5.069 -24.1177,4.5996 -0.077,-0.077 1.7422,-1.5185 4.0354,-3.2122 4.9985,-3.6927 12.2528,-10.8059 15.6039,-15.302 1.3378,-1.7951 2.5136,-3.4723 2.6105,-3.7279 0.099,-0.2557 2.4883,-0.9389 5.3115,-1.5185 11.1784,-2.2965 23.1248,-6.6647 36.4278,-13.3228 12.4489,-6.2284 31.4777,-17.9004 31.4854,-19.3109 0,-0.8419 0.2182,-0.9543 -9.7149,5.0855 -7.9849,4.8542 -17.5797,10.0368 -22.9364,12.3884 -13.1366,5.7666 -26.1166,10.0764 -36.1534,12.0048 -5.5197,1.0601 -5.6498,1.1306 -7.7424,4.2151 -1.0381,1.5317 -2.2701,3.2221 -2.7351,3.7566 -0.4661,0.5344 -1.6673,1.9207 -2.669,3.0789 -8.214,9.5044 -12.6428,13.3062 -20.08,17.2381 -5.3347,2.8199 -5.306,3.1681 0.2325,2.8276 2.4309,-0.1499 6.4245,-0.5278 8.873,-0.8397 z m -36.1357,-17.4287 c 8.5711,-0.7505 11.1574,-1.0943 20.9098,-2.7748 9.7436,-1.6794 10.2803,-1.8491 7.6631,-2.4177 -6.5203,-1.4171 -16.4237,-5.0018 -21.9644,-7.9507 -7.716,-4.1059 -9.7469,-5.3644 -16.4667,-10.1998 -1.0392,-0.7472 -2.1918,-1.3599 -2.561,-1.3599 -1.5317,0 -30.3537,-3.4634 -48.6145,-5.8415 -3.3136,-0.432 -10.4455,-1.5141 -15.8463,-2.4045 l -9.8207,-1.6199 -2.6194,0.6546 c -1.4403,0.3603 -4.8938,1.2739 -7.673,2.0298 -11.6853,3.177 -21.7694,4.9468 -31.2099,5.4768 -3.1825,0.1785 -4.7308,0.411 -4.6415,0.6953 0.2402,0.7681 11.6004,6.3463 18.5516,9.11 23.9226,9.5078 48.512,15.1763 72.6969,16.7588 3.5274,0.2303 7.2013,0.487 8.1634,0.5697 3.8943,0.335 27.0742,-0.1686 33.4326,-0.7262 z m 43.3459,-10.9789 c 3.3302,-0.7207 3.8778,-1.1494 1.8965,-1.4844 -9.4384,-1.6 -24.0527,-7.7072 -36.6184,-15.3008 -6.2427,-3.7721 -15.8827,-10.0169 -17.0453,-11.0417 -0.7923,-0.6976 -1.3124,-0.7251 -8.9413,-0.4695 -21.7507,0.7273 -52.9463,-2.8927 -70.9514,-8.2328 -2.6359,-0.7824 -5.3159,-1.4899 -5.9583,-1.5725 -0.864,-0.1124 -2.7263,0.6193 -7.1915,2.8254 -19.0839,9.4285 -23.6802,10.8291 -34.7759,10.5977 -3.2839,-0.066 -5.8966,0 -5.8074,0.1366 0.1818,0.2942 3.7313,1.4877 7.5397,2.5356 3.5549,0.9786 16.146,0.9665 21.1864,-0.022 5.284,-1.0336 12.0038,-2.7626 16.9153,-4.3495 2.9334,-0.9488 4.8012,-1.3521 5.6002,-1.2099 0.6589,0.1179 5.9219,1.189 11.6952,2.3813 23.4509,4.8421 44.4644,7.5 67.0757,8.4841 2.4441,0.1102 2.7725,0.2501 8.3584,3.6464 14.9736,9.1056 24.1078,12.6726 35.5539,13.8837 2.345,0.2479 8.6295,-0.1961 11.4682,-0.8099 z m -171.6779,-3.4668 c -1.8612,-1.8965 -2.2877,-2.0695 -2.2877,-0.9268 0,0.8651 0.5852,1.0458 0.9433,0.292 0.1279,-0.2677 0.1587,-0.088 0.066,0.389 -0.088,0.4805 0,0.8739 0.1896,0.8739 0.1939,0 0.7085,0.357 1.1438,0.7923 0.4353,0.4353 0.9775,0.6766 1.2034,0.5378 0.2424,-0.151 -0.2722,-0.9499 -1.2618,-1.9582 z m -2.5411,-1.8855 c 0.2744,-0.7152 -0.454,-1.21 -0.9907,-0.6744 -0.4154,0.4154 -0.1168,1.2441 0.4474,1.2441 0.1785,0 0.4232,-0.2567 0.5433,-0.5697 z m -0.983,-1.3598 c 0.1234,-0.3703 -0.077,-0.4551 -0.6865,-0.2954 -0.6127,0.1598 -0.8033,0.077 -0.6634,-0.2887 0.216,-0.5609 -1.2672,-2.151 -2.0067,-2.151 -0.2534,0 -0.4176,-0.2182 -0.3636,-0.486 0.055,-0.2667 -0.2127,-0.4606 -0.5907,-0.4309 -0.4375,0.033 -0.6501,-0.1774 -0.5829,-0.5829 0.055,-0.3515 -0.1146,-0.5951 -0.3813,-0.5411 -0.2678,0.055 -0.486,-0.099 -0.486,-0.335 0,-0.2369 -1.9009,-2.3802 -4.2238,-4.7616 -2.323,-2.3824 -5.9088,-6.1831 -7.9694,-8.4466 -3.6938,-4.0585 -3.8327,-4.1621 -10.028,-7.5198 -9.8604,-5.3445 -15.8661,-9.1904 -25.1469,-16.102 -3.5384,-2.6359 -4.4883,-3.178 -4.7991,-2.7405 -0.2997,0.4209 -0.335,0.3823 -0.1553,-0.1709 0.3493,-1.0766 -0.1554,-1.5692 -0.7857,-0.7658 -0.5047,0.6446 -0.5312,0.6138 -0.3086,-0.3648 0.2744,-1.2132 -0.346,-1.4557 -0.994,-0.389 -0.3306,0.5422 -0.3625,0.454 -0.1598,-0.4397 0.1951,-0.8573 0.1279,-1.0777 -0.2854,-0.9399 -1.2441,0.4143 -0.606,1.4612 2.4563,4.0266 13.7041,11.4814 21.6129,17.0948 30.6755,21.7705 3.2872,1.6959 5.6862,3.2375 7.0383,4.5224 1.1284,1.0733 4.8277,4.5996 8.2218,7.8372 3.3941,3.2387 6.7011,6.3253 7.3479,6.8598 0.6469,0.5344 1.8061,1.5361 2.5753,2.226 1.4414,1.2904 2.0012,1.4138 2.302,0.5091 z m 194.9151,-3.3467 c 9.7051,-1.3532 21.138,-4.6955 33.0437,-9.6588 6.8542,-2.8574 15.4903,-7.0173 15.8815,-7.6509 0.1411,-0.2292 0.3251,-0.3901 0.4078,-0.3582 0.8452,0.3262 8.5325,-4.7627 8.0003,-5.296 -0.088,-0.088 -1.7136,0.6556 -3.6145,1.6485 -1.902,0.9929 -3.2817,1.6386 -3.0679,1.4348 0.8496,-0.8122 5.6696,-3.9726 9.3392,-6.1248 2.1334,-1.2507 5.5804,-3.3863 7.6609,-4.745 4.1533,-2.7109 4.0365,-2.5489 6.625,-9.272 0.7427,-1.9284 2.8453,-7.0019 4.6713,-11.2731 4.41,-10.3123 5.4073,-12.8556 7.9187,-20.2057 1.8469,-5.4041 5.5749,-18.9175 5.5749,-20.209 0,-0.2469 -0.8309,-0.8805 -1.8469,-1.4073 -4.539,-2.3538 -11.39,-6.0321 -13.703,-7.3556 -3.0106,-1.7235 -19.5115,-10.3155 -27.99,-14.5746 -3.3136,-1.664 -6.1082,-3.0966 -6.2085,-3.1836 -0.099,-0.088 0.066,-0.313 0.3802,-0.5047 0.3603,-0.2237 0.7747,-0.1642 1.1548,0.1642 0.3251,0.2821 0.8342,0.4264 1.1318,0.3195 0.3272,-0.1179 0.4341,-0.022 0.271,0.2403 -0.1663,0.27 -0.055,0.3526 0.2954,0.2182 0.3107,-0.1191 1.4678,0.2413 2.5709,0.8011 8.8201,4.4696 32.4452,14.449 43.1993,18.2475 l 4.8267,1.7058 -0.1356,1.4954 c -0.2435,2.6877 -5.0272,20.8327 -7.9926,30.3163 -2.7472,8.7838 -5.9098,18.0645 -8.1799,24.0019 -0.562,1.4712 -0.9653,2.8442 -0.8959,3.0525 0.066,0.2072 0.8386,-0.2083 1.7092,-0.9257 0.8716,-0.7162 2.6513,-2.0893 3.9549,-3.0524 1.3037,-0.962 2.6437,-2.3064 2.9776,-2.9885 1.1879,-2.4255 6.0123,-18.5605 8.6978,-29.0832 2.0794,-8.1524 5.5021,-26.3448 5.5021,-29.2507 0,-0.2104 -2.0562,-1.222 -4.5687,-2.248 -6.5634,-2.6822 -28.0209,-12.2935 -42.6649,-19.1125 -2.993,-1.3929 -6.6185,-3.0646 -8.0543,-3.7125 l -2.6128,-1.1781 -7.6895,5.0504 c -20.727,13.6148 -39.4593,23.0344 -58.6733,29.5052 -2.962,0.9973 -5.577,2.0078 -5.8117,2.2447 -0.2337,0.2369 -0.6491,1.4799 -0.9213,2.7626 -0.6733,3.166 -3.7874,12.5801 -6.0454,18.2718 -4.3594,10.9932 -9.7072,21.6272 -19.15,38.084 l -6.0156,10.4841 2.2943,2.1511 c 3.6309,3.4051 11.7095,9.3171 17.2469,12.6208 8.203,4.8939 14.3707,7.3281 21.7054,8.5656 4.2603,0.7185 13.595,0.7108 18.8007,-0.011 z m -48.4811,-25.8235 c 0.1323,-0.2138 0.3174,-0.389 0.4122,-0.389 0.088,0 0.1708,0.1752 0.1708,0.389 0,0.2137 -0.1852,0.389 -0.4111,0.389 -0.227,0 -0.3041,-0.1753 -0.1719,-0.389 z m 1.3973,-1.5549 c -0.033,-0.8232 0.6403,-1.7852 1.0006,-1.4249 0.1653,0.1653 0.1135,0.4232 -0.1157,0.5709 -0.2281,0.1487 -0.5157,0.5333 -0.638,0.854 -0.1973,0.5179 -0.2248,0.5179 -0.2469,0 z m 1.1857,-2.204 c 0.4243,-0.1124 0.5786,-0.4551 0.4585,-1.0237 -0.1598,-0.7603 -0.1312,-0.7791 0.2578,-0.1708 0.5246,0.8221 0.2039,1.4711 -0.6975,1.4094 -0.5929,-0.044 -0.5951,-0.066 -0.022,-0.2149 z m 1.3367,-1.9339 c -0.1344,-0.3504 -0.1531,-0.7295 -0.044,-0.8419 0.1113,-0.1124 0.2083,0.044 0.2149,0.3471 0,0.303 0.5091,-0.4992 1.1163,-1.7819 0.6072,-1.2827 2.4662,-4.6062 4.1291,-7.3865 5.8867,-9.8339 12.8754,-24.7711 17.4342,-37.263 l 1.9946,-5.4647 9.3293,-4.0001 c 19.3439,-8.2924 34.0519,-16.2508 43.8021,-23.7001 2.2657,-1.7301 2.9092,-2.0496 2.4199,-1.1989 -0.1619,0.2821 -0.1311,0.3504 0.077,0.162 0.1939,-0.1786 0.3581,-0.5279 0.3625,-0.7769 0,-0.2502 0.3207,-0.4287 0.6998,-0.3967 0.3791,0.033 0.6237,-0.1422 0.5422,-0.3846 -0.077,-0.2436 0.2446,-0.7505 0.7228,-1.1262 1.2331,-0.9698 1.7268,-0.8364 0.5532,0.1487 l -0.9719,0.8166 0.9719,-0.5807 c 0.5345,-0.3196 0.9764,-0.8221 0.9808,-1.1163 0,-0.2954 0.324,-0.5103 0.7074,-0.4772 0.4309,0.033 0.6227,-0.1377 0.5014,-0.454 -0.2369,-0.6171 0.7924,-1.0987 1.1406,-0.5345 0.1355,0.2193 0.1851,0.4375 0.1102,0.4849 -0.077,0.044 -1.361,1.1339 -2.8574,2.4144 -12.0401,10.3023 -30.0419,22.0008 -46.9825,30.5312 -4.8376,2.4364 -8.7981,4.5864 -8.8003,4.7759 0,0.1906 -1.7323,3.8635 -3.8458,8.1634 -3.0911,6.2878 -12.2275,22.1661 -16.9131,29.3939 -3.5891,5.5352 -5.047,7.5661 -5.3677,7.4746 -0.2027,-0.055 -0.2666,0.055 -0.141,0.2612 0.1917,0.3108 -1.1846,3.1494 -1.5273,3.1494 -0.066,0 -0.2248,-0.2876 -0.3604,-0.6391 z m 4.9754,-7.3501 c 0.1334,-0.3461 0.066,-0.5025 -0.1521,-0.3659 -0.2115,0.13 -0.3845,0.4022 -0.3845,0.6028 0,0.5598 0.2788,0.4364 0.5366,-0.2369 z m -147.4158,16.3675 c 6.7572,-1.1956 13.5674,-4.3902 18.0183,-8.451 2.4331,-2.2194 4.4607,-5.0657 4.4607,-6.2592 0,-0.411 0.3449,-0.8287 0.778,-0.9422 0.4276,-0.1113 0.7769,-0.4661 0.7769,-0.7879 0,-0.4804 -0.1102,-0.497 -0.5929,-0.088 -0.325,0.27 -0.6358,0.4231 -0.6909,0.3394 -0.1785,-0.2777 -1.8788,-4.3418 -4.42,-10.5635 -4.0277,-9.8659 -12.8666,-35.8944 -17.9114,-52.7479 l -1.102,-3.6795 -4.2602,-2.5555 c -8.9491,-5.3677 -18.6398,-12.3078 -27.9745,-20.0338 -8.418,-6.9677 -20.6498,-19.6492 -24.6401,-25.5458 -1.016,-1.502 -1.4623,-1.8469 -2.3934,-1.8469 -0.6304,0 -9.6753,1.6552 -20.0999,3.6784 -10.4247,2.0221 -20.1275,3.8877 -21.5612,4.1456 -1.4347,0.2579 -2.7813,0.5752 -2.9929,0.7064 -0.6766,0.4176 -1.308,11.8781 -1.037,18.826 0.8981,23.0399 6.5028,42.8071 15.6127,55.0587 8.1006,10.8941 21.8774,24.4748 34.5798,34.0883 13.1509,9.9519 26.326,15.8111 38.7684,17.2425 3.8701,0.4452 12.6109,0.1422 16.6816,-0.5785 z m -63.8239,-30.2061 c -1.8171,-1.5008 -3.2783,-2.9819 -3.2475,-3.2926 0.044,-0.3868 -0.088,-0.4463 -0.3967,-0.1885 -0.5091,0.4221 -9.0284,-6.9303 -13.5983,-11.7359 -6.5258,-6.8609 -8.462,-9.3425 -10.3739,-13.2898 -3.1604,-6.5258 -6.2911,-18.0899 -7.37,-27.2208 -0.6204,-5.2487 -0.9245,-16.8139 -0.5972,-22.7424 l 0.2887,-5.2476 12.8853,-3.6376 c 7.0868,-2.0012 15.4849,-4.4167 18.6608,-5.3688 3.1758,-0.9532 5.8062,-1.6772 5.8448,-1.6111 2.0342,3.4966 4.2029,6.1754 8.419,10.3993 9.888,9.9045 26.347,22.0636 41.833,30.9069 l 5.8911,3.3643 0.4055,2.4111 c 0.2226,1.3257 0.6832,4.5104 1.0226,7.0758 0.5136,3.8756 3.1792,20.0139 3.4305,20.7677 0.044,0.1234 -0.099,0.238 -0.3141,0.2556 -0.3989,0.033 -4.0795,-9.8791 -5.8592,-15.7758 -2.9852,-9.889 -3.286,-10.6913 -4.2414,-11.2764 -2.1599,-1.3224 -12.7498,-9.0758 -16.7235,-12.244 -7.1099,-5.6696 -15.5807,-13.3558 -22.3523,-20.2817 -7.175,-7.338 -7.8968,-8.1678 -7.5695,-8.6967 0.1257,-0.2039 -0.1311,-0.3703 -0.5719,-0.3703 -0.4397,0 -0.8,-0.2546 -0.8,-0.5642 0,-0.3097 -0.2281,-0.7042 -0.5058,-0.875 -0.2777,-0.1708 -0.9213,-0.9223 -1.4293,-1.6717 -0.508,-0.7482 -0.9576,-1.4105 -1.0006,-1.4733 -0.099,-0.1399 -11.0163,3.7864 -23.3055,8.3805 -5.1308,1.9174 -9.9684,3.6927 -10.7497,3.945 l -1.4193,0.4573 -0.2777,4.809 c -0.7064,12.2506 1.1218,24.1265 5.8239,37.8383 3.0028,8.7574 3.4392,9.5056 8.8135,15.1157 8.905,9.2918 17.1323,18.3225 16.9946,18.6519 -0.077,0.1808 -0.281,0.2799 -0.4562,0.2215 -0.1764,-0.055 -0.2006,0.088 -0.055,0.3251 0.1928,0.3119 0.3857,0.3141 0.6898,0 0.5951,-0.595 1.167,-0.5256 0.9223,0.1124 -0.1256,0.3284 0.044,0.5157 0.4353,0.486 0.3527,-0.033 0.6447,0.2127 0.6502,0.5333 0,0.3207 0.2711,0.5841 0.5917,0.5841 0.3207,0 0.5874,0.2623 0.5918,0.5829 0,0.3494 0.2953,0.5334 0.7218,0.4596 0.4562,-0.077 0.6457,0.066 0.5267,0.3878 -0.099,0.2821 0.1719,0.907 0.6094,1.3874 1.2717,1.3973 0.6843,1.0039 -2.8387,-1.9042 z m 184.1181,23.1127 c 1.492,-1.6287 1.5383,-1.783 0.7372,-2.4474 -0.4728,-0.3923 -0.6281,-0.3472 -0.8529,0.2446 -0.151,0.3978 -0.4585,0.9367 -0.6844,1.1956 -1.1504,1.3246 -1.3829,1.6662 -1.3829,2.0387 0,0.8 0.8915,0.379 2.183,-1.0315 z m -70.039,0.3009 c 0.4882,-0.7879 -1.9526,-1.934 -6.5974,-3.0966 -2.6911,-0.6744 -5.6774,-1.5945 -6.6372,-2.0463 -3.6751,-1.7268 -6.4928,-5.425 -11.2136,-14.7146 -4.3748,-8.6086 -5.6542,-11.9729 -6.1964,-16.2893 -0.4132,-3.285 -0.5598,-3.7313 -1.2298,-3.7313 -0.6953,0 -0.7582,0.27 -0.7251,3.1153 0.022,1.7125 0.2612,3.8117 0.5345,4.6646 0.8771,2.734 4.2767,10.3673 6.4762,14.5405 4.2536,8.0697 7.2807,11.9982 10.7883,13.995 4.3583,2.4827 14.0303,4.8112 14.8005,3.5627 z m 72.5217,-3.5296 c 0.2656,-0.6414 0.6369,-1.1659 0.8243,-1.1659 0.1884,0 0.3416,-0.1664 0.3416,-0.3692 0,-0.2027 0.4595,-0.8584 1.0215,-1.4579 2.6811,-2.8596 9.6488,-14.3542 13.6732,-22.5562 4.5434,-9.262 8.5623,-20.0536 10.7332,-28.8242 1.535,-6.1996 1.5626,-6.5567 0.5334,-6.8674 -2.6767,-0.8078 -12.6462,-5.2333 -22.2686,-9.8869 -12.0908,-5.8459 -35.3082,-19.258 -40.0632,-23.1435 -0.7857,-0.6425 -1.8017,-1.3367 -2.2579,-1.545 -0.4562,-0.2072 -0.9411,-0.5367 -1.0778,-0.7295 -0.3294,-0.4672 -1.1129,0.033 -1.1129,0.7185 0,0.8342 0.6755,1.0546 1.6441,0.5377 0.8177,-0.4352 0.8419,-0.4198 0.3185,0.2138 -0.4937,0.5984 -0.4937,0.7251 0,1.0028 0.3107,0.1752 3.1009,2.1158 6.2018,4.3131 10.0478,7.1231 16.8249,11.7723 20.9925,14.4016 11.3845,7.186 22.9904,13.8672 28.962,16.6728 4.8277,2.2701 4.6139,1.9009 3.4723,6.0102 -0.5356,1.924 -1.5075,5.4227 -2.161,7.7743 -1.7047,6.1325 -4.0861,13.4011 -5.8283,17.7902 -1.9791,4.9853 -6.8157,14.4942 -8.0201,15.7681 -0.2678,0.2821 -0.486,0.7637 -0.486,1.0689 0,0.3053 -0.1752,0.5554 -0.389,0.5554 -0.2138,0 -0.389,0.3603 -0.389,0.8 0,0.4408 -0.1752,0.6921 -0.389,0.5598 -0.2137,-0.1311 -0.3879,0.1201 -0.3879,0.5609 0,0.4397 -0.1752,0.8001 -0.389,0.8001 -0.2137,0 -0.3889,0.2732 -0.3889,0.606 0,0.3604 -0.183,0.4937 -0.4496,0.3284 -0.3064,-0.1895 -0.3824,-0.022 -0.2403,0.5268 0.1499,0.5697 0,0.8606 -0.5212,0.9961 -0.4188,0.1102 -0.7328,0.5345 -0.7328,0.9929 0,0.5896 -0.1719,0.7361 -0.6502,0.5521 -0.4826,-0.1851 -0.5895,-0.088 -0.4143,0.3659 0.1487,0.3879 -0.1146,0.8782 -0.7108,1.3256 -0.9146,0.6877 -1.2221,1.6761 -0.6865,2.2106 0.4871,0.4871 0.8121,0.2589 1.2959,-0.9069 z m 174.2598,-2.2613 c 1.5626,-0.6457 15.3559,-14.5878 20.263,-20.4801 18.6332,-22.3776 32.4486,-47.2766 41.9575,-75.6126 6.2878,-18.739 10.3441,-38.3155 10.5083,-50.7215 0.055,-4.15 -0.011,-4.669 -0.6182,-4.7902 -0.6127,-0.1223 -0.681,0.2645 -0.6876,3.8767 -0.022,13.4341 -7.4879,41.661 -16.6717,63.0525 -4.5059,10.494 -9.662,20.8393 -14.9438,29.9845 -7.868,13.6226 -17.3692,26.2136 -29.5713,39.186 -8.1105,8.6229 -11.4164,11.671 -13.2523,12.2187 -2.3351,0.6964 -7.9309,1.5471 -13.703,2.0849 -2.8331,0.2633 -5.1506,0.6149 -5.1506,0.7802 0,0.3151 1.9362,0.6413 5.2476,0.886 4.0024,0.2942 15.5686,-0.033 16.6221,-0.4651 z m -366.485,-9.0306 c 0.1377,-0.2248 0.1466,-0.681 0.022,-1.016 -0.1983,-0.5169 -0.3283,-0.529 -0.8672,-0.077 -0.5631,0.4673 -0.6039,0.4276 -0.3581,-0.3449 0.2027,-0.6402 0.1201,-0.8716 -0.3097,-0.8716 -1.0469,0 -1.1383,0.8342 -0.1939,1.7653 1.0446,1.0304 1.3521,1.1284 1.7113,0.5488 z m -2.5907,-2.9169 c 0.1223,-0.6348 0.055,-0.6634 -0.486,-0.2116 -0.7438,0.616 -0.8364,1.3367 -0.1422,1.1064 0.2667,-0.088 0.5499,-0.4915 0.6282,-0.8948 z m -0.9036,-0.5896 c 0.4551,-0.7372 -0.2094,-0.919 -0.886,-0.2424 -0.6061,0.6061 -0.6072,0.6568 -0.011,0.6568 0.3537,0 0.7592,-0.1863 0.9003,-0.4144 z m -1.3566,-1.3345 c -0.033,-0.5774 -0.9003,-0.4716 -1.1019,0.1345 -0.1102,0.3262 0.066,0.4727 0.4738,0.389 0.357,-0.077 0.6392,-0.3097 0.6281,-0.5235 z m 356.9872,-2.1378 c 0.2843,0 7.6609,-7.6532 8.5876,-8.9094 1.5064,-2.0408 6.203,-16.8359 8.9579,-28.217 1.3973,-5.7721 2.8222,-11.5949 3.1671,-12.9382 0.5818,-2.2668 0.9355,-2.7715 4.9103,-6.9942 2.3561,-2.5037 5.3391,-5.7258 6.6306,-7.1606 1.2904,-1.4337 2.518,-2.5015 2.7274,-2.3725 0.2204,0.1366 0.2556,0.033 0.077,-0.2469 -0.1818,-0.2942 0.1399,-0.9631 0.8254,-1.7124 1.459,-1.5957 3.0822,-3.7412 5.1583,-6.8157 1.2827,-1.8998 1.7598,-2.3516 2.0519,-1.9439 0.2898,0.4066 0.3272,0.3703 0.1564,-0.1565 -0.1443,-0.4485 0.81,-2.335 2.723,-5.3853 1.6188,-2.583 3.642,-5.9914 4.496,-7.5738 0.9081,-1.6838 1.7235,-2.7715 1.9659,-2.6216 0.2392,0.1477 0.3009,0.077 0.1477,-0.1752 -0.3361,-0.5433 3.1582,-7.5705 3.6211,-7.284 0.1873,0.1157 0.2733,-0.099 0.1917,-0.4706 -0.077,-0.3746 1.4987,-4.0045 3.5131,-8.0675 2.0155,-4.0618 3.6729,-7.0658 3.685,-6.6746 0.055,1.9406 -10.7112,24.262 -11.6093,24.0615 -0.2633,-0.055 -0.3647,0.077 -0.2259,0.3041 0.5312,0.8585 -8.7959,15.8078 -15.5201,24.8781 -1.5064,2.0309 -4.6933,5.9914 -7.0823,8.8014 -2.3891,2.8089 -4.5203,5.4371 -4.7352,5.8404 -0.216,0.4022 -0.7593,2.7549 -1.2089,5.2289 -1.8072,9.9441 -4.766,20.3324 -8.0223,28.1707 -1.1615,2.7957 -2.1125,5.2894 -2.1125,5.5396 0,0.7747 0.5488,0.4959 1.361,-0.6932 0.4275,-0.6248 2.7692,-3.5527 5.2035,-6.506 6.798,-8.2449 9.4615,-11.7183 15.4452,-20.1418 11.3855,-16.0259 22.4008,-37.0052 29.1889,-55.591 3.4734,-9.5122 7.5022,-24.2918 7.5022,-27.5238 0,-0.702 0.5333,-1.145 2.6006,-2.1643 5.9837,-2.9511 9.7998,-7.673 12.1625,-15.0507 1.1846,-3.6971 1.394,-5.5209 0.4264,-3.7136 -0.6567,1.2287 -4.4023,5.2839 -6.8223,7.3876 -4.1731,3.6299 -10.7706,5.8327 -15.7691,5.2674 l -2.2624,-0.2568 -1.0259,3.4492 c -2.6425,8.8807 -5.4272,16.2761 -8.84,23.4697 -7.316,15.4232 -20.6652,34.0795 -31.6353,44.2121 -2.9423,2.7186 -6.8994,6.0134 -7.7887,6.4884 -0.033,0.022 -0.4298,2.9169 -0.8827,6.4454 -2.097,16.3477 -6.0752,30.562 -12.8148,45.7923 -1.8899,4.269 -1.9846,4.9985 -0.4276,3.2872 0.6326,-0.6943 1.2155,-1.2629 1.296,-1.2629 z m -358.174,0.9389 c 0,-0.6865 -0.8364,-0.5664 -1.0766,0.1543 -0.088,0.2534 0.1223,0.4617 0.4617,0.4617 0.3383,0 0.6149,-0.2777 0.6149,-0.616 z m -1.1659,-0.9389 c 0,-0.2138 -0.1653,-0.389 -0.3658,-0.389 -0.2017,0 -0.4739,0.1752 -0.6061,0.389 -0.1322,0.2138 0.033,0.3879 0.3658,0.3879 0.3328,0 0.6061,-0.1741 0.6061,-0.3879 z m -1.167,-1.1901 c 0,-0.2006 -0.2622,-0.3659 -0.5829,-0.3659 -0.6006,0 -0.7725,0.4596 -0.3339,0.897 0.3108,0.3108 0.9168,-0.044 0.9168,-0.5311 z m -1.3807,-1.1758 c -0.1256,-0.2028 -0.3934,-0.2656 -0.5962,-0.1411 -0.2016,0.1257 -0.2656,0.3934 -0.1399,0.5962 0.1245,0.2028 0.3934,0.2656 0.595,0.14 0.2028,-0.1246 0.2667,-0.3923 0.1411,-0.5951 z m -1.34,-1.1328 c 0,-0.2138 -0.077,-0.389 -0.1719,-0.389 -0.099,0 -0.2788,0.1752 -0.4111,0.389 -0.1322,0.2138 -0.055,0.3879 0.1708,0.3879 0.2271,0 0.4122,-0.1741 0.4122,-0.3879 z m 96.3021,-21.2846 c -0.1102,-0.5884 -0.832,-3.8679 -1.6111,-7.2895 -1.3565,-5.9594 -3.7169,-19.3098 -3.7213,-21.0443 0,-0.4562 0.3041,-0.9223 0.6777,-1.0358 0.3747,-0.1146 3.3048,-1.3753 6.5115,-2.8012 3.2079,-1.4271 9.4175,-4.1357 13.8011,-6.0201 4.3836,-1.8832 8.6692,-3.7312 9.5243,-4.1059 0.8551,-0.3758 1.7499,-0.6535 1.9891,-0.6171 0.2391,0.033 0.6534,-0.2006 0.9223,-0.5235 0.8022,-0.9664 -0.088,-0.7548 -7.1881,1.7004 -8.5304,2.9511 -12.3564,4.4035 -21.3804,8.1116 l -7.3865,3.0348 0.1278,1.5428 c 0.2237,2.6943 2.3384,12.1569 4.5544,20.3842 1.1792,4.3759 2.1764,8.3562 2.2172,8.8444 0.044,0.4881 0.3174,0.8882 0.616,0.8882 0.3802,0 0.4838,-0.3196 0.346,-1.069 z m -113.7959,-2.3053 c 0,-0.1454 -0.8551,-1.9383 -1.8998,-3.9847 -2.4728,-4.8409 -3.621,-8.1116 -5.674,-16.1604 -3.48,-13.639 -4.6117,-23.3914 -4.4101,-37.9738 l 0.1268,-9.2069 -1.0017,-1.0954 c -5.4151,-5.9176 -12.5757,-21.2449 -16.9075,-36.192 -4.2239,-14.5768 -6.1843,-26.9045 -6.7353,-42.3695 -0.2666,-7.4747 -0.324,-7.9111 -1.1218,-8.4698 -0.951,-0.6667 -2.1973,-4.2988 -2.6116,-7.6091 -0.2656,-2.1323 -0.7439,-3.4183 -1.1263,-3.0348 -0.1102,0.1102 -0.389,3.9517 -0.6237,8.5414 -0.2358,4.5897 -0.5895,10.0069 -0.7868,12.0379 -0.5818,5.9804 -0.4551,25.8665 0.2116,33.0678 2.7593,29.8524 11.4043,61.567 23.3606,85.6957 2.6833,5.4151 7.91,14.7278 7.921,14.114 0,-0.1487 -0.9609,-3.297 -2.1411,-6.9975 -1.1802,-3.7004 -2.4134,-7.8647 -2.7406,-9.2543 -0.9543,-4.0563 -2.8067,-17.3152 -3.4635,-24.7888 -0.8298,-9.4394 -1.102,-10.8709 -2.7704,-14.5658 -2.475,-5.4834 -5.9054,-14.9482 -7.5463,-20.8272 -0.8639,-3.0932 -1.5074,-5.6884 -1.4292,-5.7655 0.077,-0.077 0.9785,2.4387 2.0023,5.5925 2.4353,7.5022 5.0316,13.4958 8.3782,19.3484 l 2.7175,4.7505 v 7.9992 c 0,9.0913 0.6347,14.4281 2.9555,24.845 1.5813,7.0989 2.1797,8.8455 5.4999,16.0458 1.2816,2.7792 2.7164,6.1027 3.188,7.3865 1.5703,4.2712 4.063,8.2901 5.4944,8.8565 0.7912,0.3119 1.1339,0.3163 1.1339,0.011 z m -31.8469,-95.9836 c 0.022,-0.4529 0.1113,-0.5455 0.2348,-0.2348 0.1124,0.281 0.099,0.616 -0.033,0.745 -0.1289,0.1289 -0.2204,-0.099 -0.2039,-0.5102 z m -0.389,-1.5549 c 0.022,-0.4529 0.1113,-0.5455 0.2348,-0.2347 0.1124,0.2799 0.099,0.616 -0.033,0.7449 -0.13,0.1289 -0.2215,-0.099 -0.205,-0.5102 z m -0.3889,-1.5549 c 0.022,-0.4529 0.1113,-0.5455 0.2358,-0.2347 0.1124,0.2799 0.099,0.616 -0.033,0.7449 -0.1289,0.1289 -0.2215,-0.099 -0.205,-0.5102 z m -0.3879,-1.5549 c 0.022,-0.4529 0.1102,-0.5454 0.2347,-0.2347 0.1124,0.2799 0.099,0.6149 -0.033,0.7449 -0.1289,0.129 -0.2215,-0.099 -0.2038,-0.5102 z m -0.389,-1.5549 c 0.022,-0.4529 0.1102,-0.5454 0.2347,-0.2358 0.1124,0.281 0.099,0.616 -0.033,0.7461 -0.1289,0.1289 -0.2204,-0.099 -0.2038,-0.5103 z m -0.389,-1.5559 c 0.022,-0.4518 0.1113,-0.5444 0.2347,-0.2348 0.1124,0.2811 0.099,0.6161 -0.033,0.745 -0.1289,0.13 -0.2204,-0.099 -0.2038,-0.5102 z m -0.3582,-2.1048 c 0,-0.5344 0.088,-0.7537 0.1962,-0.486 0.1102,0.2667 0.1102,0.7042 0,0.972 -0.1102,0.2667 -0.1962,0.044 -0.1962,-0.486 z m -0.4187,-1.7819 c 0.022,-0.4529 0.1102,-0.5454 0.2347,-0.2347 0.1124,0.2799 0.099,0.6149 -0.033,0.7449 -0.1289,0.129 -0.2215,-0.099 -0.2038,-0.5102 z m -0.3582,-1.7168 c 0,-0.5345 0.088,-0.7538 0.1962,-0.486 0.1102,0.2667 0.1102,0.7041 0,0.9719 -0.1102,0.2667 -0.1962,0.044 -0.1962,-0.4859 z m -0.389,-1.9439 c 0,-0.5345 0.088,-0.7538 0.1962,-0.486 0.1102,0.2667 0.1102,0.7042 0,0.972 -0.1102,0.2666 -0.1962,0.044 -0.1962,-0.486 z m -0.3889,-1.9439 c 0,-0.5344 0.088,-0.7537 0.1961,-0.486 0.1102,0.2667 0.1102,0.7042 0,0.972 -0.1102,0.2667 -0.1961,0.044 -0.1961,-0.486 z m -0.389,-2.3329 c 0,-0.5344 0.088,-0.7526 0.1961,-0.4859 0.1102,0.2678 0.1102,0.7052 0,0.9719 -0.1102,0.2678 -0.1961,0.044 -0.1961,-0.486 z m -0.3593,-2.7207 c 0,-0.7483 0.077,-1.0546 0.1774,-0.681 0.099,0.3746 0.099,0.9873 0,1.3609 -0.099,0.3747 -0.1774,0.066 -0.1774,-0.6799 z m -0.4176,-2.3329 c 0,-0.5344 0.088,-0.7526 0.1961,-0.486 0.1102,0.2678 0.1102,0.7042 0,0.972 -0.1102,0.2678 -0.1961,0.044 -0.1961,-0.486 z m -0.3604,-2.7207 c 0,-0.7483 0.077,-1.0546 0.1774,-0.6811 0.099,0.3747 0.099,0.9863 0,1.361 -0.099,0.3746 -0.1774,0.066 -0.1774,-0.6799 z m -0.3813,-2.9159 c 0,-0.8551 0.088,-1.1592 0.1775,-0.6755 0.088,0.4827 0.088,1.1825 0,1.5549 -0.099,0.3714 -0.173,-0.022 -0.1697,-0.8794 z m -0.3878,-3.4987 c 0,-0.8551 0.088,-1.1593 0.1763,-0.6755 0.088,0.4827 0.088,1.1824 0,1.5549 -0.099,0.3713 -0.173,-0.022 -0.1686,-0.8794 z m -0.4111,-3.1098 c 0,-0.6424 0.099,-0.8573 0.1929,-0.4793 0.099,0.3791 0.088,0.9036 -0.011,1.167 -0.1102,0.2622 -0.1862,-0.044 -0.1785,-0.6877 z m -0.3592,-4.8596 c 0,-0.9621 0.077,-1.3555 0.1686,-0.875 0.088,0.4816 0.088,1.2684 0,1.7499 -0.088,0.4805 -0.1686,0.088 -0.1686,-0.8749 z m -0.389,-5.0537 c 0,-0.962 0.077,-1.3565 0.1686,-0.8749 0.088,0.4815 0.088,1.2683 0,1.7488 -0.088,0.4816 -0.1686,0.088 -0.1686,-0.8739 z m 305.3566,117.3839 c 22.4812,-5.533 37.479,-12.8875 59.3212,-29.0875 4.637,-3.4393 5.3511,-4.1104 5.1517,-4.8399 -0.1279,-0.4661 -0.4265,-3.4712 -0.6645,-6.679 -0.8585,-11.563 0.4386,-32.572 3.7929,-61.4733 l 1.0436,-8.9932 -4.8266,-4.9544 c -18.6519,-19.1456 -36.2845,-32.6238 -54.5486,-41.6985 -4.5313,-2.2514 -5.1131,-2.4475 -6.0255,-2.0266 -2.4398,1.1241 -10.0268,3.6652 -18.0194,6.0333 -16.7003,4.9501 -21.6063,6.754 -30.6579,11.2743 -9.0405,4.5147 -17.4221,9.6466 -27.8445,17.0474 l -5.5352,3.9318 v 12.2451 c 0,6.7352 -0.1774,14.6948 -0.3835,17.6877 -0.2061,2.9941 -0.5521,8.0675 -0.7681,11.2743 -0.6931,10.2791 -1.1218,14.8413 -3.5075,37.3203 l -0.7846,7.3854 1.654,1.5141 c 3.2101,2.9368 10.6439,8.7089 14.6771,11.3933 13.4782,8.9733 29.7885,16.2419 50.5374,22.5231 8.029,2.4299 8.019,2.4299 17.3979,0.1223 z m -14.6066,-5.6266 c -16.5571,-5.3071 -33.0315,-13.8826 -49.139,-25.58 -2.9334,-2.1312 -5.2244,-4.0509 -5.09,-4.2668 0.1333,-0.216 0.066,-0.2854 -0.1477,-0.1521 -0.2137,0.1322 -0.8066,-0.1466 -1.3157,-0.6204 -0.5091,-0.4739 -1.0601,-0.8177 -1.2254,-0.7637 -0.1642,0.055 -0.2986,-0.1653 -0.2986,-0.486 0,-0.3206 -0.2623,-0.584 -0.583,-0.584 -0.3206,0 -0.5829,-0.2501 -0.5829,-0.5554 0,-0.3063 -0.3945,-0.6325 -0.875,-0.7251 -0.7769,-0.1487 -0.7857,-0.1741 -0.088,-0.2215 0.6876,-0.044 2.0739,0.8188 6.0156,3.75 0.5345,0.3978 2.7593,1.8293 4.9446,3.1814 2.1852,1.351 3.8646,2.6337 3.7301,2.8508 -0.1333,0.216 -0.055,0.2777 0.1719,0.1366 0.227,-0.141 1.7533,0.5367 3.3919,1.5053 8.3276,4.9236 19.6999,10.3839 26.7558,12.8468 4.8035,1.6772 16.6375,4.6481 21.0652,5.2883 l 3.2222,0.4651 6.1655,-2.0266 c 16.3852,-5.3875 31.8105,-12.9007 44.1889,-21.5214 2.0982,-1.4612 4.0057,-2.5389 4.2393,-2.3946 0.2347,0.1444 0.3141,0.088 0.1796,-0.1344 -0.1355,-0.2182 0.077,-0.6877 0.4672,-1.0425 0.594,-0.5377 0.7847,-0.5565 1.1494,-0.1179 0.5609,0.6766 -0.2744,1.4645 -6.1578,5.8107 -14.1768,10.472 -30.3107,19.7406 -43.5388,25.0136 -7.6895,3.0645 -8.1292,3.0734 -16.6463,0.3438 z m 66.5523,-31.4667 c -0.281,-0.7317 0.9389,-1.8392 1.7202,-1.5626 0.2788,0.099 0.4121,0.022 0.2964,-0.1609 -0.281,-0.4551 4.0365,-3.9858 4.5125,-3.6916 0.2061,0.1267 -0.119,0.7328 -0.7206,1.3477 -1.0965,1.1174 -1.9693,1.5328 -1.4469,0.6887 0.1675,-0.2711 0.1102,-0.3438 -0.1543,-0.1818 -0.238,0.1466 -0.3218,0.5543 -0.1873,0.9047 0.1829,0.4772 0.077,0.5764 -0.3934,0.3934 -0.3505,-0.1344 -0.7417,-0.077 -0.8684,0.1268 -0.1256,0.2049 0,0.3757 0.2799,0.3812 0.2799,0 0.077,0.3405 -0.4529,0.7472 -0.5278,0.4055 -1.1009,0.6512 -1.2728,0.5454 -0.1719,-0.1102 -0.2633,0.011 -0.2049,0.2733 0.1664,0.7284 -0.8353,0.8992 -1.1075,0.1885 z m -127.4735,-3.3379 c -0.3582,-0.5774 -0.077,-0.7824 0.5498,-0.3967 0.335,0.2061 0.3747,0.4066 0.1135,0.5686 -0.2226,0.1367 -0.5212,0.055 -0.6633,-0.1719 z m 4.9015,-18.4789 c 0.022,-0.4529 0.1113,-0.5444 0.2347,-0.2347 0.1124,0.281 0.099,0.616 -0.033,0.7449 -0.129,0.13 -0.2204,-0.099 -0.2039,-0.5102 z m 0,-2.7208 c 0.022,-0.4529 0.1113,-0.5454 0.2347,-0.2347 0.1124,0.2799 0.099,0.616 -0.033,0.7449 -0.129,0.129 -0.2204,-0.099 -0.2039,-0.5102 z m 0.3681,-1.7168 c 0,-0.1102 0.3493,-3.0811 0.7702,-6.6085 1.3246,-11.1013 1.7158,-22.1529 1.2254,-34.5809 -0.3438,-8.7221 -0.335,-11.1233 0.044,-11.3558 1.0568,-0.6513 2.0342,-1.3698 3.9318,-2.8872 8.8037,-7.0415 22.8648,-13.941 48.0558,-23.5799 12.5448,-4.8002 13.4451,-5.1032 14.0479,-4.7307 0.2722,0.1686 0.3526,0.1146 0.1983,-0.1345 -0.3923,-0.6358 3.4558,-1.7741 5.2024,-1.5405 2.8508,0.3824 13.5245,6.1798 22.8736,12.4247 9.5508,6.3793 25.3342,18.3466 30.5223,23.1435 1.6926,1.5648 1.7962,1.7775 1.7995,3.6938 0,4.0398 -1.6419,31.2023 -1.9273,31.7169 -0.1697,0.3063 -0.3967,-0.5102 -0.5411,-1.9439 -0.4551,-4.5434 -1.3995,-17.1731 -1.7719,-23.71 l -0.3681,-6.4652 -3.6266,-3.4866 c -7.7303,-7.4339 -19.7065,-17.5401 -26.4604,-22.3281 -7.3777,-5.2322 -19.5655,-12.3751 -21.1127,-12.3751 -0.8121,0 -15.7427,6.1181 -23.8895,9.7888 -11.0319,4.9698 -24.4086,12.4919 -35.2752,19.8343 -8.0565,5.4426 -7.349,4.4883 -7.6487,10.3166 -0.551,10.6891 -2.7583,29.9438 -4.7539,41.4847 -0.2138,1.2353 -1.3136,4.0575 -1.2948,3.3236 z m 197.9532,53.6747 c 3.9726,-2.5202 11.4759,-9.6654 16.8006,-15.9995 3.0569,-3.6365 9.7921,-13.627 12.9735,-19.2448 4.2767,-7.5518 9.2609,-19.0718 12.7597,-29.4964 1.146,-3.4139 2.0827,-6.257 2.0827,-6.3176 0,-0.3515 -0.8287,-0.033 -0.9653,0.3758 -5.1109,15.1443 -11.7106,29.3421 -18.6178,40.0466 -2.0397,3.1616 -8.1612,11.4561 -10.3651,14.0446 -2.2359,2.6271 -8.9392,9.1607 -11.4539,11.1652 -4.8266,3.8491 -4.1885,3.7136 -10.9006,2.3141 -14.7356,-3.0712 -24.1431,-5.8085 -31.5263,-9.1728 -2.724,-1.2419 -3.9814,-1.4392 -3.4238,-0.5367 0.8992,1.4546 17.5081,8.0929 27.9691,11.1784 10.7817,3.1814 12.0225,3.3202 14.6672,1.6431 z m -284.849,-4.8564 c 7.4714,-1.1516 23.9822,-6.2052 31.6838,-9.6973 3.5726,-1.6199 16.0822,-6.6394 22.3524,-8.9679 10.7684,-4.0001 11.1221,-4.1555 11.4803,-5.0415 0.8088,-2 2.4243,-18.9505 3.2816,-34.442 0.6282,-11.3437 0.7681,-37.5011 0.2502,-46.6783 l -0.2975,-5.2762 -5.608,-5.5749 c -12.6638,-12.5889 -23.3,-22.0427 -34.5698,-30.7262 -9.261,-7.1363 -15.7009,-12.0379 -17.3737,-13.2247 l -1.6298,-1.156 -8.6725,3.0613 c -16.438,5.8019 -31.5361,12.4765 -45.2148,19.9875 -6.3727,3.4999 -18.2563,10.6428 -18.8029,11.3007 -1.1902,1.4337 -4.6338,22.2895 -5.8801,35.6145 -1.6177,17.2844 -0.5775,43.2732 1.8425,46.0348 12.0191,13.7162 20.9407,22.3964 29.838,29.0291 8.2306,6.1358 15.8264,10.7299 23.5204,14.2275 4.0894,1.858 4.7186,2.0332 7.3854,2.0497 1.6033,0 4.4905,-0.2237 6.4145,-0.5201 z m -8.0785,-5.3247 c -2.0045,-0.4574 -3.2177,-1.1229 -8.6372,-4.7385 -4.8707,-3.2497 -12.8082,-9.3733 -19.4377,-14.9956 -6.8895,-5.8426 -18.9847,-18.5307 -23.8851,-25.0543 l -1.5086,-2.01 0.066,-32.3461 c 0.066,-31.8425 0.077,-32.3571 0.8408,-32.9698 6.9237,-5.5495 33.3941,-20.2851 46.6496,-25.9701 6.246,-2.6789 13.9521,-5.3181 15.5279,-5.3181 3.8965,0 13.9619,6.5589 35.2046,22.9419 11.8605,9.1474 21.0586,16.4017 22.6377,17.853 l 1.9714,1.8138 0.5136,3.8668 c 2.454,18.4877 3.4183,30.1102 2.5411,30.6524 -0.2513,0.1553 -0.5157,-0.099 -0.638,-0.6259 -0.1896,-0.8056 -1.9054,-12.514 -3.5208,-24.0208 -1.1747,-8.3628 -1.1075,-8.17 -3.5936,-10.3496 -4.5985,-4.0299 -18.9108,-15.8375 -24.4559,-20.176 -6.7397,-5.2729 -15.5808,-11.3029 -20.5308,-14.0038 -3.4371,-1.8745 -3.5671,-1.9108 -7.4537,-2.0574 -8.7728,-0.3306 -18.1451,2.4684 -33.3533,9.964 -9.2555,4.5611 -19.5401,10.4874 -25.9448,14.9515 -2.6833,1.8701 -2.8276,2.2458 -3.621,9.4252 -0.9081,8.2118 -1.3092,16.7918 -1.7445,37.2399 -0.217,10.2174 -0.4363,18.7026 -0.487,18.8536 -0.044,0.152 0.044,0.3162 0.2071,0.3669 0.4397,0.1345 2.8112,2.9004 2.8112,3.2784 0,0.1774 0.1245,0.3306 0.2766,0.3383 0.5576,0.033 2.6381,2.3946 2.4188,2.7483 -0.1245,0.2017 -0.066,0.3185 0.1377,0.259 0.2006,-0.055 2.0023,1.3807 4.0046,3.1979 2.0023,1.8171 4.6073,4.1819 5.7875,5.2553 11.3161,10.2824 22.7942,18.297 34.1655,23.8565 4.8365,2.3648 6.0751,2.6348 9.4306,2.0596 5.1539,-0.8827 37.9672,-11.5299 53.6361,-17.4023 1.8491,-0.6943 2.8155,-0.8673 3.4723,-0.6248 0.9091,0.3372 0.9091,0.3372 -0.2303,0.7625 -0.6259,0.2347 -3.588,1.4568 -6.582,2.7175 -42.7223,17.9907 -52.0317,21.3187 -56.6721,20.2608 z m 80.2222,-6.2306 c 0.4,-0.7482 0.3615,-0.8121 -0.3747,-0.6193 -0.4518,0.1179 -0.822,0.033 -0.822,-0.1917 0,-0.4133 -0.8111,-1.1582 -2.0409,-1.8734 -0.5454,-0.3184 -0.6799,-0.2534 -0.6799,0.3251 0,0.5334 2.68,3.0481 3.3875,3.1781 0.044,0 0.2843,-0.3603 0.53,-0.8188 z m 158.1876,-28.3217 c 0.5874,-6.9181 2.1852,-19.5577 4.9225,-38.9468 l 2.2326,-15.8166 2.5466,-1.0612 c 2.5434,-1.0612 12.6077,-5.9815 15.1819,-7.4228 0.7482,-0.4188 2.5852,-1.4403 4.0817,-2.269 6.1743,-3.4205 15.843,-9.8252 22.9914,-15.2292 4.1853,-3.1638 7.8218,-5.9066 8.083,-6.0961 0.5851,-0.4243 6.7121,2.6304 10.3276,5.1506 3.2277,2.2491 8.6736,6.7705 10.3244,8.5711 0.7019,0.7659 1.4028,1.2651 1.5592,1.1097 0.8904,-0.8915 -8.0961,-10.3343 -13.3757,-14.0534 -3.5373,-2.4927 -7.771,-4.4883 -9.5562,-4.5049 -1.3114,-0.011 -3.4999,1.167 -9.8582,5.3104 -12.6297,8.2317 -25.4191,15.9466 -37.0174,22.3292 -4.1698,2.2943 -7.879,4.4035 -8.2449,4.6856 -0.5532,0.4287 -0.8893,2.8343 -2.0276,14.5085 -2.8475,29.2132 -3.3544,36.3132 -3.2861,46.0667 0.055,7.1617 0.3637,6.506 1.1152,-2.3318 z m -342.5679,3.8735 c 7.1992,-0.767 16.0271,-2.8497 25.4974,-6.0157 5.9275,-1.9813 13.4605,-5.1649 13.4605,-5.6895 0,-0.4606 0.3593,-0.5587 -6.5721,1.7819 -12.1073,4.0872 -24.1463,6.5766 -34.2481,7.0835 l -4.8597,0.2435 -2.1918,-2.8739 c -6.7209,-8.8125 -12.8214,-22.2047 -16.0491,-35.2322 -2.227,-8.9865 -2.1808,-8.8466 -1.9372,-5.9341 0.9642,11.5299 7.857,30.3956 15.0573,41.2082 3.7423,5.6211 3.9638,5.8305 6.1423,5.8305 1.059,0 3.6244,-0.1807 5.7005,-0.4022 z m 37.6058,-46.9274 c 0.6689,-11.9321 1.6673,-22.965 3.1395,-34.6966 1.1571,-9.2223 1.21,-10.4951 0.4606,-11.056 -0.8297,-0.6215 -6.7021,-7.3292 -10.2174,-11.6721 -1.7114,-2.1124 -3.5043,-4.2558 -3.9847,-4.7638 -0.4816,-0.5069 -0.8772,-1.0457 -0.8805,-1.1956 0,-0.151 -0.3967,-0.7692 -0.875,-1.3742 -0.4782,-0.6038 -1.2397,-1.5659 -1.6937,-2.1378 -0.454,-0.5708 -2.1191,-2.8882 -3.7004,-5.1506 -1.8072,-2.583 -3.0745,-4.0453 -3.4084,-3.934 -0.303,0.099 -0.4231,0 -0.2799,-0.2325 0.2502,-0.4044 -0.9719,-2.6139 -4.4497,-8.0422 -0.5499,-0.8595 -2.1026,-3.5296 -3.4514,-5.9352 -1.3477,-2.4056 -2.5863,-4.3737 -2.7516,-4.3737 -0.67,0 -5.4294,3.8844 -8.3463,6.8124 -3.3787,3.3907 -5.4427,5.8062 -7.802,9.1265 -0.8353,1.1758 -1.8336,2.4849 -2.2182,2.9081 -0.3857,0.4231 -0.8001,1.1658 -0.9213,1.6496 -0.1212,0.4838 -0.389,0.7758 -0.5939,0.6491 -0.2061,-0.1268 -0.3185,0.088 -0.2502,0.4881 0.066,0.3956 -0.077,0.6822 -0.3207,0.637 -0.2446,-0.044 -0.5201,0.4353 -0.6127,1.0689 -0.2071,1.4072 0.1642,1.4843 0.8618,0.1796 0.2865,-0.5344 0.6656,-0.9719 0.843,-0.9719 0.1785,0 0.324,-0.1863 0.324,-0.4144 0,-0.3658 1.4469,-2.4959 2.5268,-3.718 0.2138,-0.2424 0.9918,-1.2045 1.7301,-2.1389 2.9907,-3.7842 9.6543,-9.7458 13.8859,-12.4236 l 1.2331,-0.7802 1.8557,3.4205 c 4.8244,8.8929 15.681,25.3574 23.1149,35.0569 3.8734,5.0525 4.3682,5.6928 5.4834,7.0967 1.0402,1.3091 1.0414,1.3235 0.703,5.3919 -0.8771,10.5404 -1.2507,22.5661 -1.016,32.6536 0.3306,14.1933 0.8001,25.0775 0.9213,21.3815 0.055,-1.6045 0.3636,-7.683 0.6909,-13.5091 z m 411.9809,12.7035 c 5.7798,-1.9251 12.3475,-6.2702 17.4519,-11.5464 4.2976,-4.4409 6.1203,-7.3347 6.6217,-10.5095 0.5466,-3.4569 0.1444,-21.4024 -0.6546,-29.1702 -0.6788,-6.603 -2.4309,-17.291 -3.9615,-24.164 -2.863,-12.8544 -10.8577,-36.2239 -14.0997,-41.207 -0.486,-0.7482 -0.8023,-1.0986 -0.7009,-0.778 0.099,0.3207 1.4182,4.4322 2.9246,9.1354 6.3408,19.7946 9.0803,30.7978 11.1751,44.9008 1.9119,12.8688 2.8982,29.4809 2.2293,37.5418 -0.3207,3.8668 -0.4783,4.4773 -1.5505,6.0256 -2.2811,3.2949 -5.7919,7.1705 -9.0626,10.0059 -2.9665,2.572 -6.2063,4.7318 -6.2063,4.1368 0,-0.1257 0.5686,-1.048 1.2629,-2.0486 0.6953,-1.0006 1.459,-2.1698 1.697,-2.5973 0.2391,-0.4276 1.0755,-1.8249 1.859,-3.1054 1.5119,-2.4706 2.7924,-6.2404 3.3511,-9.8582 2.1334,-13.8297 1.1769,-39.3392 -2.5191,-67.1848 -0.6645,-5.0052 -1.2187,-7.694 -3.5483,-17.2326 -0.9664,-3.9561 -2.0166,-8.4157 -2.3329,-9.9111 -0.6424,-3.0348 -3.2012,-10.5899 -4.6327,-13.6798 -0.8099,-1.7467 -1.0997,-2.0321 -2.1819,-2.1379 -1.1769,-0.1168 -1.4292,-0.4573 -4.464,-6.0354 -5.609,-10.309 -10.331,-16.8271 -14.7234,-20.3226 -3.1847,-2.5345 -2.8696,-2.5565 -13.8088,0.972 -8.0951,2.6105 -15.6446,4.5919 -19.3395,5.0757 -1.123,0.1465 -2.0409,0.3239 -2.0409,0.3934 0,0.066 0.7912,1.9813 1.7599,4.248 8.3992,19.6647 11.5287,31.1262 12.9999,47.6172 0.5366,6.0212 0.465,18.7478 -0.1444,25.6505 l -0.497,5.63 3.5836,3.7004 c 5.2322,5.4019 9.0637,10.04 13.6556,16.5284 5.4195,7.6576 12.222,20.3137 15.8816,29.5449 2.0155,5.0845 6.2261,17.6844 6.6305,19.841 0.1389,0.7405 0.4133,1.3466 0.6105,1.3466 0.1962,0 1.4458,-0.3626 2.7748,-0.8056 z m -7.6069,-30.8683 c -0.3515,-0.7372 -0.5025,-1.426 -0.335,-1.5296 0.3174,-0.1961 1.416,2.4288 1.135,2.7109 -0.088,0.088 -0.4485,-0.4441 -0.8,-1.1813 z m -0.8177,-2.3086 c 0.1973,-0.5158 0.1455,-0.659 -0.1664,-0.4662 -0.3008,0.1863 -0.368,0.066 -0.2027,-0.3669 0.2292,-0.5984 0.2755,-0.5962 0.6193,0.022 0.2479,0.4452 0.2215,0.8111 -0.077,1.1119 -0.3427,0.3405 -0.3834,0.2689 -0.1686,-0.2953 z m -1.0149,-1.3709 c 0,-0.2017 0.173,-0.4727 0.3846,-0.6039 0.2204,-0.1355 0.2854,0.022 0.1532,0.3659 -0.259,0.6733 -0.5378,0.7967 -0.5378,0.238 z m -2.6722,-5.7578 c -3.6729,-7.4074 -10.6715,-18.3235 -15.0188,-23.4223 -5.0812,-5.9606 -6.8355,-8.3188 -8.0245,-10.7883 -1.2585,-2.6139 -1.264,-2.6524 -1.5428,-10.5921 -0.314,-8.9205 -0.7229,-12.8743 -2.1532,-20.7986 -0.9775,-5.4173 -3.4448,-15.67 -4.4971,-18.6905 -0.3042,-0.8716 -0.4441,-1.8954 -0.3097,-2.2755 0.162,-0.4651 0.6424,0.5036 1.4612,2.9455 4.0993,12.2231 6.7474,25.2307 7.4692,36.6802 0.6314,10.0191 0.4242,9.2763 3.9891,14.2561 8.0774,11.2809 20.2299,31.8778 19.5026,33.0536 -0.1675,0.2711 -0.088,0.3229 0.2072,0.1388 0.2931,-0.1807 0.4408,-0.088 0.3857,0.2325 -0.1477,0.864 0.4826,2.6734 0.8518,2.4453 0.1884,-0.1168 0.2391,0.055 0.1113,0.3912 -0.1278,0.3317 -0.2601,0.6039 -0.2953,0.6039 -0.033,0 -0.9973,-1.8811 -2.1367,-4.1798 z m -29.1493,-109.5368 c 2.194,-1.1912 16.4336,-5.7181 18.6089,-5.9153 2.1996,-0.1995 2.3186,-0.162 3.4966,1.1085 1.2309,1.3268 2.54,3.4525 2.1268,3.4525 -0.1235,0 -0.7196,-0.2556 -1.3246,-0.5686 -0.9653,-0.4992 -1.762,-0.4992 -6.5071,0 -2.9742,0.313 -7.8493,1.005 -10.8346,1.5395 -6.2063,1.1107 -7.003,1.1658 -5.566,0.3845 z m -47.6778,105.0838 c 19.4894,-10.8831 23.7794,-13.3151 31.8425,-18.0547 4.4696,-2.6282 8.2912,-4.8321 8.4907,-4.8993 0.7151,-0.2381 1.8259,-10.8258 1.8358,-17.5103 0.022,-15.7736 -3.7984,-35.8823 -10.1083,-53.1634 -3.0822,-8.4422 -6.1534,-12.6859 -15.1631,-20.9539 -10.6748,-9.7965 -26.898,-20.6575 -42.6242,-28.5366 -12.0136,-6.019 -12.8269,-6.2283 -19.1742,-4.9247 -13.6148,2.7957 -35.8217,12.9206 -53.1964,24.2532 -2.4629,1.6067 -2.4651,1.6089 -2.2547,3.1781 0.2303,1.7114 2.6921,9.3414 6.4554,20.0051 5.263,14.9119 7.2112,26.3746 8.5601,50.3435 0.8308,14.7553 0.6336,13.5024 2.2689,14.4225 24.078,13.5565 43.1112,26.9421 61.0105,42.9085 l 3.3974,3.0304 4.2756,-2.2271 c 2.3527,-1.2254 8.8246,-4.7671 14.384,-7.8713 z m -17.4937,-1.6276 c -0.6414,-0.4915 -5.2774,-3.9605 -10.3012,-7.7083 -5.025,-3.7489 -15.4232,-11.8407 -23.1061,-17.9819 -7.6841,-6.1424 -16.4524,-13.0275 -19.485,-15.3009 l -5.5143,-4.1324 -0.27,-6.6151 c -0.6953,-17.0419 -2.6171,-27.8633 -7.0526,-39.7127 -0.7317,-1.9549 -1.3278,-3.7908 -1.3245,-4.0828 0,-0.6149 3.8051,7.5518 3.9671,8.5314 0.066,0.3626 0.2181,0.7461 0.3504,0.853 0.432,0.3471 4.1456,12.1095 5.5241,17.4937 1.1957,4.6735 2.9214,13.7382 3.5594,18.7026 0.2237,1.7334 0.4926,2.0442 8.2824,9.5552 14.189,13.6831 21.679,20.2762 33.1252,29.1559 6.517,5.0569 8.9799,6.7297 9.9089,6.7297 1.2044,0 22.4713,-8.1072 33.4359,-12.7465 6.3606,-2.6899 12.9195,-5.7578 22.4504,-10.4984 0.1609,-0.077 0.2898,0.088 0.2876,0.3735 0,0.8452 -4.2943,3.253 -29.1514,16.3731 -5.8801,3.1031 -13.3151,7.0559 -16.523,8.7838 -3.2067,1.7279 -6.0927,3.1362 -6.4134,3.1307 -0.3207,0 -1.1086,-0.4122 -1.7499,-0.9036 z m 53.9193,-39.791 c -0.2854,-20.7953 -4.4784,-36.9391 -15.8573,-61.0656 -1.8833,-3.9925 -2.4552,-4.809 -5.6939,-8.127 -10.6373,-10.8985 -29.9372,-23.4367 -44.5218,-28.9245 -4.7054,-1.7698 -5.9208,-1.8293 -11.1993,-0.551 -11.2268,2.7197 -29.9702,10.6098 -44.7829,18.8514 -1.9824,1.1031 -3.8018,1.8832 -4.0453,1.7323 -0.2656,-0.1642 -0.3339,-0.099 -0.1719,0.1631 0.1642,0.2655 -0.4926,0.8209 -1.6893,1.427 -2.5643,1.2992 -2.5037,0.7064 0.1113,-1.0942 2.1257,-1.4646 2.8508,-1.7643 2.3637,-0.9764 -0.173,0.2799 -0.1102,0.3427 0.1785,0.1675 0.2502,-0.1554 0.3659,-0.4264 0.2557,-0.6028 -0.2006,-0.325 3.4392,-2.5532 13.0153,-7.9672 12.2804,-6.9435 28.8198,-14.6749 34.5974,-16.1725 3.4712,-0.8992 2.809,-1.0513 9.9144,2.2701 18.4845,8.6383 36.9413,20.4591 48.0106,30.7504 2.8784,2.6745 4.171,4.2382 5.8581,7.0846 7.2862,12.2902 12.7431,31.5714 14.3465,50.6916 0.6171,7.3656 0.4011,19.6316 -0.3471,19.6316 -0.1333,0 -0.2887,-3.2795 -0.3427,-7.2884 z m -213.307,32.1686 c 0.1323,-0.2137 0.099,-0.389 -0.077,-0.3901 -0.173,0 -0.9169,-0.5146 -1.6519,-1.1438 -0.735,-0.6281 -1.4788,-1.0546 -1.6518,-0.9477 -0.173,0.1102 -0.3152,-0.088 -0.3152,-0.443 0,-0.7603 -0.9256,-0.5576 -1.0777,0.2358 -0.066,0.3108 0.7868,1.0954 1.9428,1.8006 2.2689,1.3841 2.4805,1.4502 2.8276,0.8882 z m 18.4657,-0.3846 c 1.037,-0.325 4.7341,-1.7433 6.0256,-2.3119 0.4275,-0.1884 2.0022,-0.811 3.4987,-1.383 12.0379,-4.6051 39.7183,-17.5345 51.5093,-24.0592 l 5.2487,-2.9048 -0.033,-9.65 c -0.066,-19.4762 -3.5087,-36.6966 -11.5046,-57.4654 -3.0051,-7.8086 -4.0001,-9.7789 -5.0514,-10.0081 -0.4992,-0.1102 -3.4194,-0.929 -6.4906,-1.8216 -7.9199,-2.3031 -14.0821,-3.7257 -22.0008,-5.0789 -11.477,-1.9615 -18.0646,-2.4508 -29.1735,-2.1687 -13.1994,0.335 -14.7212,0.7923 -3.6927,1.1097 4.8101,0.1388 10.4962,0.4397 12.634,0.6678 11.5961,1.2408 25.439,4.3627 37.8901,8.5457 8.948,3.0051 8.2053,2.2987 11.65,11.0836 5.4713,13.9532 8.159,24.1949 9.92,37.7965 0.6655,5.1417 1.3763,15.4694 1.3785,20.0304 v 3.0106 l -3.2497,2.096 c -13.3261,8.5975 -28.3195,17.2513 -37.7633,21.7991 -6.7849,3.2662 -16.6596,7.6873 -20.0206,8.9645 -1.6034,0.6083 -3.0668,1.2342 -3.2508,1.3907 -0.5411,0.4584 0.1587,1.2078 0.8606,0.9224 0.3515,-0.1444 1.0777,-0.399 1.6122,-0.5654 z m -23.3937,-3.243 c 0.077,-0.3846 -0.1234,-0.6491 -0.486,-0.6491 -0.3361,0 -0.6115,-0.1631 -0.6115,-0.3626 0,-0.5741 -1.5891,-0.9245 -2.0585,-0.4551 -0.5113,0.5113 0.7967,1.6761 1.5725,1.4028 0.2678,-0.099 0.486,0.099 0.486,0.432 0,0.7868 0.9344,0.4739 1.0975,-0.368 z m -3.0414,-2.4453 c 0,-0.2953 -0.1686,-0.5356 -0.3747,-0.5356 -1.1824,0 -19.5004,-14.5812 -27.6153,-21.982 -12.1558,-11.0869 -16.9163,-15.497 -17.1588,-15.8992 -0.2534,-0.4188 1.7015,-8.3706 3.8834,-15.799 3.5197,-11.9751 8.3397,-23.9854 13.2423,-32.9929 1.8128,-3.3324 2.1863,-4.6834 1.2926,-4.6834 -0.3912,0 -8.3749,14.7774 -10.6064,19.6316 -4.15,9.0284 -8.8389,21.8697 -11.2743,30.875 l -1.3047,4.8288 2.5081,2.3207 c 5.8195,5.3853 21.0762,17.3737 33.6144,26.4131 10.9955,7.9276 12.8347,9.1364 13.3074,8.7529 0.2678,-0.217 0.486,-0.6358 0.486,-0.93 z m -130.4048,-2.9257 c 1.0579,-0.6733 2.4475,-1.5241 3.0899,-1.8921 0.6414,-0.3681 3.09,-1.8557 5.4416,-3.3059 18.6276,-11.488 35.5693,-19.9214 57.8269,-28.7868 3.1538,-1.2562 5.7346,-2.4243 5.7346,-2.5973 0,-0.6722 10.8213,-24.6819 14.9383,-33.1417 7.0967,-14.5846 12.4324,-23.9965 19.7715,-34.8784 l 4.6459,-6.8895 -8.1061,-8.4664 c -15.4661,-16.1538 -24.0703,-25.1139 -26.4891,-27.5845 l -2.4309,-2.4828 -4.7605,0.6149 c -5.2608,0.6789 -13.5675,2.4685 -18.3676,3.9561 -9.7326,3.0172 -39.5442,14.6353 -45.6348,17.7847 -1.9945,1.0314 -7.4768,8.5358 -14.4997,19.8486 -10.872,17.5125 -20.4801,37.0714 -25.1899,51.278 l -1.2761,3.8502 1.2717,3.1473 c 3.3621,8.3154 11.5751,22.9683 18.9781,33.859 5.187,7.629 12.1481,16.9097 12.6837,16.9097 0.2479,0 1.3157,-0.5498 2.3725,-1.2231 z m -1.5846,-14.3796 c -5.6476,-5.4228 -13.0363,-15.8948 -17.3494,-24.5916 -2.2425,-4.5213 -4.8983,-10.8136 -5.1186,-12.1304 -0.099,-0.6204 -0.2965,-1.4778 -0.4276,-1.9053 -0.1311,-0.4276 0.378,0.5047 1.1317,2.0728 0.7527,1.5681 1.2541,3.0381 1.1119,3.2673 -0.1411,0.2292 -0.077,0.3075 0.1377,0.173 0.5191,-0.3218 1.8436,2.637 1.4579,3.2596 -0.184,0.2987 -0.1377,0.3846 0.1191,0.2248 0.2457,-0.1509 0.897,0.7042 1.5857,2.0806 1.9637,3.9296 5.8525,10.2483 8.5358,13.866 4.6647,6.2912 12.4336,13.3471 14.6937,13.3471 0.843,0 7.7292,-3.6321 14.2837,-7.5353 2.734,-1.6287 5.1209,-2.961 5.3027,-2.961 0.1829,0 0.3901,-0.1388 0.4617,-0.3085 0.066,-0.1697 1.4414,-1.1042 3.0447,-2.0772 1.6034,-0.9731 6.2394,-3.8316 10.3023,-6.3518 8.4422,-5.2365 11.9762,-7.3402 17.561,-10.45 l 3.9539,-2.2028 3.5825,-6.8961 c 4.723,-9.089 7.6554,-14.2606 13.2776,-23.4168 7.2631,-11.8286 8.8224,-14.1978 9.2742,-14.0821 0.2303,0.055 0.3129,-0.066 0.1818,-0.2766 -0.3394,-0.5499 1.4469,-3.1648 2.0188,-2.9533 0.2788,0.099 0.4408,-0.099 0.389,-0.4881 -0.1223,-0.9015 4.0883,-7.1386 4.5247,-6.7022 0.1961,0.1961 -1.8899,4.0277 -4.9104,9.0207 -10.7927,17.831 -18.5252,33.1439 -22.857,45.2579 l -1.264,3.5351 -9.5618,4.6932 c -5.2586,2.582 -16.2088,8.4015 -24.3347,12.9317 -8.1248,4.5312 -17.7043,9.7083 -21.2879,11.5056 l -6.5159,3.2662 z m -24.4593,-41.8836 c 0.173,-0.626 0.1168,-0.8375 -0.1752,-0.6568 -0.2369,0.1454 -0.4309,0.088 -0.4309,-0.1234 0,-0.2138 0.1565,-0.4849 0.3482,-0.6039 0.5466,-0.3372 0.864,0.9433 0.4111,1.6606 -0.3295,0.5224 -0.3582,0.4695 -0.1532,-0.2765 z m -0.9951,-2.3803 c 0,-0.2138 0.1752,-0.389 0.389,-0.389 0.2138,0 0.389,0.1752 0.389,0.389 0,0.2138 -0.1752,0.3879 -0.389,0.3879 -0.2138,0 -0.389,-0.1741 -0.389,-0.3879 z m 1.5549,-7.7524 c 0,-0.2016 0.173,-0.4727 0.3846,-0.6038 0.2204,-0.1356 0.2854,0.022 0.1532,0.3658 -0.259,0.6733 -0.5378,0.7967 -0.5378,0.238 z m 1.178,-0.5487 c 0,-0.183 0.6898,-1.8282 1.5472,-3.6575 0.8573,-1.8292 1.4898,-3.394 1.4072,-3.4778 -0.088,-0.088 -0.8133,1.2574 -1.621,2.9797 -0.8089,1.7224 -1.5295,3.0701 -1.6045,2.9963 -0.2049,-0.205 5.4746,-12.3674 7.9287,-16.9747 8.2603,-15.5135 18.9792,-32.0552 24.0956,-37.1849 4.3175,-4.3296 20.5275,-12.5183 33.5285,-16.9383 7.4041,-2.5169 17.1984,-4.993 18.7952,-4.7517 1.0182,0.1543 1.102,0.1179 0.465,-0.1984 -0.605,-0.3008 -0.4308,-0.3449 0.7769,-0.1983 1.1615,0.1421 1.3587,0.099 0.778,-0.1763 -0.5267,-0.248 -0.5895,-0.3725 -0.1939,-0.3868 0.3206,-0.011 0.8319,0.1366 1.135,0.3284 0.4055,0.2567 0.099,0.4683 -1.1659,0.7945 -21.5148,5.5638 -36.9192,12.3453 -49.9787,22.003 -7.2498,5.3611 -21.4079,26.3194 -31.8667,47.1709 -2.2084,4.4023 -4.02,7.8537 -4.0266,7.6719 z m 4.2338,-9.5585 c -0.022,-0.5234 -0.055,-0.5267 -0.2469,-0.022 -0.119,0.3206 -0.3769,0.9322 -0.573,1.3609 -0.3526,0.7648 -0.3482,0.7648 0.2468,0.022 0.3317,-0.4143 0.5907,-1.027 0.5731,-1.3598 z m 415.3264,-10.6164 c -5.4404,-10.0367 -14.8171,-24.6246 -18.5759,-28.8991 -0.2137,-0.2435 -1.6132,-2.1202 -3.1097,-4.1721 -1.4965,-2.0507 -2.9401,-3.7367 -3.2079,-3.7455 -0.2666,0 -0.4451,-0.1488 -0.3956,-0.3097 0.099,-0.3218 -0.7746,-1.4502 -2.7615,-3.5627 -1.6,-1.7003 -1.3764,-1.3091 3.5461,6.1876 2.0365,3.0998 4.9853,8.0499 6.5546,10.9998 2.3383,4.3947 3.4734,6.0366 6.29,9.1012 4.3065,4.6834 5.9209,6.7837 10.1712,13.2335 1.8667,2.8332 3.4513,5.1517 3.5207,5.1517 0.066,0 -0.8441,-1.794 -2.032,-3.9847 z m -290.3952,-2.6678 c -0.6556,-0.6568 -1.4358,-0.033 -0.8463,0.6777 0.3251,0.3923 0.5929,0.4408 0.8739,0.1598 0.281,-0.281 0.2733,-0.5378 -0.033,-0.8375 z m 0.9863,-0.994 c -0.1895,-0.9753 -1.0976,-1.1086 -1.0976,-0.1609 0,0.4772 0.2513,0.8099 0.6116,0.8099 0.3626,0 0.5598,-0.2644 0.486,-0.649 z m 0.7119,-1.4722 c -0.1267,-0.3306 -0.4111,-0.6006 -0.6314,-0.6006 -0.5698,0 -0.4981,1.0667 0.088,1.275 0.6612,0.2358 0.821,0.033 0.5466,-0.6744 z m 0.9113,-1.1836 c 0,-0.3206 -0.2623,-0.5829 -0.5829,-0.5829 -0.3207,0 -0.583,0.2623 -0.583,0.5829 0,0.3207 0.2623,0.583 0.583,0.583 0.3206,0 0.5829,-0.2623 0.5829,-0.583 z m 263.8642,-8.2184 c 3.2607,-0.9995 5.9286,-1.9737 5.9286,-2.1643 0,-1.6276 -8.1546,-17.5059 -10.1062,-19.679 -0.3218,-0.357 -1.2694,-1.6551 -2.1069,-2.8849 -0.8375,-1.2298 -1.6971,-2.2348 -1.9109,-2.2348 -0.2137,0 -0.2865,-0.099 -0.1619,-0.2281 0.2104,-0.2105 -0.5918,-1.3279 -2.0662,-2.8762 -0.3339,-0.3504 -0.5301,-0.8892 -0.4364,-1.1967 0.1333,-0.4386 0.066,-0.4584 -0.3251,-0.088 -0.5091,0.4782 -0.055,1.5185 1.2518,2.8805 0.2866,0.2975 1.2001,1.5031 2.031,2.6789 0.8309,1.1758 1.6595,2.1962 1.8403,2.2678 0.1807,0.066 0.3283,0.2755 0.3283,0.454 0,0.1775 0.7626,1.6144 1.696,3.1924 3.0954,5.2355 8.0223,15.162 8.0223,16.1626 0,0.1852 -1.5306,0.9058 -3.4018,1.6023 -5.6465,2.1003 -8.8598,3.9043 -6.9975,3.9285 0.2678,0 3.1539,-0.8121 6.4146,-1.8105 z m -45.9708,-6.9678 c -1.0678,-0.7626 -4.0421,-2.6216 -6.6074,-4.1313 -2.5654,-1.5097 -5.2333,-3.0866 -5.9286,-3.5053 -0.6943,-0.4177 -1.2629,-0.6667 -1.2629,-0.5532 0,0.4441 14.6397,9.575 15.3493,9.575 0.216,0 -0.4815,-0.6237 -1.5504,-1.3852 z m -109.9335,-2.4045 c 12.0985,-8.6714 24.9364,-15.4353 47.3461,-24.9463 2.994,-1.2706 5.3952,-2.5081 5.3368,-2.7495 -0.2766,-1.1581 -9.9618,-20.5638 -11.7712,-23.5854 -5.6355,-9.4141 -14.0402,-20.447 -16.8139,-22.0702 -5.1252,-3.0007 -21.3286,-8.3221 -32.5367,-10.6858 -13.0109,-2.7428 -19.4453,-3.3302 -36.5435,-3.3324 -15.7471,0 -18.6971,0.1973 -29.3465,1.9825 -8.1336,1.3642 -6.5171,0.5311 -25.4566,13.1178 -15.2601,10.1414 -18.9362,12.9118 -24.3072,18.3147 -4.1842,4.2107 -9.5243,10.7828 -9.5243,11.7228 0,0.26 3.2541,3.5924 7.2311,7.4063 7.6366,7.3204 12.9261,13.0396 20.6156,22.2884 2.5775,3.0999 5.1936,6.1358 5.8129,6.7452 1.2298,1.2132 0.8772,1.2011 7.1595,0.2303 3.8613,-0.5962 24.3833,-0.2314 31.6827,0.5642 17.2667,1.8822 24.9144,3.0073 44.9284,6.6118 9.2201,1.6607 9.2642,1.6684 10.4687,1.7345 0.6534,0.033 2.5246,-1.0612 5.7181,-3.3489 z m -5.3369,-5.3544 c -0.411,-0.4948 -0.3868,-0.5521 0.1466,-0.3472 0.3515,0.1345 0.638,0.4011 0.638,0.5918 0,0.5003 -0.2248,0.4298 -0.7846,-0.2446 z m 0.7846,-1.3742 c 0,-0.227 0.1753,-0.3041 0.389,-0.1719 0.2138,0.1322 0.389,0.3174 0.389,0.4121 0,0.099 -0.1752,0.1708 -0.389,0.1708 -0.2137,0 -0.389,-0.1851 -0.389,-0.411 z m 1.167,-0.4871 c 0,-0.3328 0.3493,-0.7152 0.7769,-0.8507 0.4276,-0.1366 0.778,-0.4209 0.778,-0.6325 0,-0.2127 0.2039,-0.259 0.454,-0.099 0.3031,0.1873 0.3747,0.066 0.2149,-0.346 -0.1587,-0.4133 0.011,-0.7086 0.5168,-0.8673 0.4166,-0.1322 0.7582,-0.422 0.7582,-0.6446 0,-0.2226 0.2689,-0.3009 0.5983,-0.1741 0.4166,0.1598 0.5643,0.022 0.486,-0.4441 -0.077,-0.4353 0.1234,-0.6568 0.5521,-0.6226 0.3659,0.022 0.6281,-0.1477 0.5829,-0.389 -0.044,-0.2425 0.237,-0.4144 0.626,-0.3824 0.4837,0.044 0.6347,-0.1278 0.4793,-0.5323 -0.1697,-0.4419 -0.033,-0.5399 0.5576,-0.3868 0.4617,0.1213 0.6854,0.044 0.5455,-0.1796 -0.2656,-0.4308 2.1014,-2.6116 2.8607,-2.637 0.2678,0 0.486,-0.1675 0.486,-0.3515 0,-0.4926 7.6697,-5.76 12.7244,-8.7386 4.852,-2.8596 10.9866,-5.9936 13.8077,-7.0537 1.016,-0.3813 1.8447,-0.8012 1.8414,-0.9323 -0.011,-0.4827 -2.6602,-8.105 -3.8316,-11.0252 -0.6645,-1.6562 -2.0001,-4.5897 -2.9687,-6.5181 -1.8767,-3.7357 -7.7634,-12.7278 -9.4053,-14.3653 -1.2342,-1.232 -3.3577,-4.2878 -3.1351,-4.5104 0.088,-0.088 0.4033,0.2766 0.6942,0.8177 0.3009,0.5631 0.7527,0.8992 1.0524,0.7835 0.3372,-0.1289 0.4849,0.044 0.4133,0.4728 -0.066,0.4286 0.1223,0.6556 0.5366,0.6248 0.4,-0.033 0.5708,0.1553 0.4452,0.4826 -0.1124,0.2921 0.055,0.6304 0.3703,0.7516 0.3151,0.1212 1.7863,1.654 3.2673,3.4051 7.0559,8.343 13.3889,18.7224 17.6062,28.855 1.5879,3.8161 1.6066,4.4332 0.1289,4.452 -0.2568,0 -3.4393,0.9719 -7.0702,2.1532 -15.5455,5.0547 -23.8334,9.5276 -37.2642,20.112 -0.3449,0.2722 -0.486,0.2072 -0.486,-0.2215 z m -86.6918,-2.6238 c 0,-0.2259 0.1752,-0.303 0.3889,-0.1708 0.2138,0.1323 0.389,0.3174 0.389,0.4111 0,0.099 -0.1752,0.1719 -0.389,0.1719 -0.2137,0 -0.3889,-0.1852 -0.3889,-0.4122 z m -1.005,-0.8077 c -0.1675,-0.2711 -0.1135,-0.3515 0.1344,-0.1984 0.2281,0.1411 0.5047,0.033 0.6127,-0.2314 0.141,-0.3493 0.205,-0.357 0.227,-0.022 0.044,0.6689 -0.6436,0.9907 -0.9741,0.4551 z m -0.7813,-1.0579 c 0.7923,-0.8904 1.0094,-1.0061 1.0094,-0.5367 0,0.162 -0.3945,0.5367 -0.875,0.832 -0.8717,0.5356 -0.8717,0.5345 -0.1344,-0.2953 z m -0.7009,-1.286 c 0.1102,-0.1785 0.3659,-0.324 0.5664,-0.324 0.2017,0 0.3659,0.1455 0.3659,0.324 0,0.1785 -0.2546,0.324 -0.5664,0.324 -0.3108,0 -0.475,-0.1455 -0.3659,-0.324 z m -0.8132,-1.4965 c 0.1344,-0.2171 0.4066,-0.2942 0.606,-0.1719 0.5389,0.3339 0.4386,0.5675 -0.2435,0.5675 -0.3339,0 -0.497,-0.1785 -0.3625,-0.3956 z m -0.8342,-1.3521 c -0.1224,-0.3196 -0.378,-0.4848 -0.5664,-0.368 -0.1896,0.1168 -0.2392,-0.055 -0.1124,-0.3912 0.1531,-0.3989 0,-0.6039 -0.4254,-0.6039 -0.3615,0 -0.5874,-0.2072 -0.5036,-0.4617 0.2413,-0.7229 1.0777,-0.8386 1.0777,-0.1499 0,0.3405 0.3493,0.919 0.7769,1.2849 0.4276,0.3669 0.778,0.8022 0.778,0.9686 0,0.5367 -0.7945,0.3207 -1.0248,-0.2788 z m -3.7688,-4.4365 c -2.4783,-3.2497 -14.1768,-14.3829 -20.1968,-19.2216 l -5.7314,-4.6063 2.2932,-2.5852 c 9.499,-10.7089 27.5459,-24.9386 41.4517,-32.6833 6.4674,-3.6023 6.0145,-3.5285 21.7429,-3.5274 19.8597,0 31.9185,1.0766 49.982,4.4509 5.7115,1.0667 5.0922,1.2749 -1.0017,0.3361 -2.3362,-0.3593 -4.9467,-0.6414 -5.8019,-0.627 -1.2287,0.022 -1.3917,-0.044 -0.7779,-0.3251 0.5653,-0.2557 0.3614,-0.2998 -0.7483,-0.1631 -0.8386,0.099 -2.7637,0.022 -4.2756,-0.1918 -9.0725,-1.254 -15.1521,-1.6121 -32.2954,-1.9031 l -18.2718,-0.3096 -2.3328,0.9323 c -5.209,2.0816 -15.0783,8.7562 -22.9959,15.552 -5.7005,4.8928 -19.96,19.2448 -19.96,20.0889 0,0.1323 3.5186,4.3109 7.8207,9.2863 10.9503,12.6649 14.4457,17.4045 12.839,17.4045 -0.1564,0 -0.9399,-0.8584 -1.74,-1.9075 z m 80.3082,-59.384 c -0.2667,-0.1102 -0.7042,-0.1102 -0.9719,0 -0.2667,0.1102 -0.044,0.1962 0.4859,0.1962 0.5345,0 0.7538,-0.088 0.486,-0.1962 z m 135.7647,80.8492 c -1.2077,-2.8926 -12.8269,-20.9649 -14.5724,-22.6675 -0.1102,-0.1102 -1.5945,-1.9438 -3.2993,-4.0816 -7.8526,-9.8483 -18.6673,-20.1121 -29.287,-27.7961 -5.8063,-4.2007 -15.3064,-10.0533 -20.4779,-12.6142 -4.3429,-2.1522 -5.1803,-2.399 -5.479,-1.6188 -0.1333,0.346 2.2117,5.2663 5.6256,11.8087 5.5076,10.5513 12.0996,24.175 12.0996,25.0036 0,0.7031 4.3869,4.8278 5.0128,4.7143 0.5235,-0.099 0.5334,-0.055 0.066,0.2633 -0.6877,0.4618 -2.1048,-0.2127 -3.8294,-1.8226 -0.6711,-0.627 -1.2937,-1.0667 -1.3841,-0.9764 -0.088,0.088 -1.7356,-3.0381 -3.6552,-6.9512 -3.4789,-7.089 -12.3046,-21.106 -13.0142,-20.6674 -0.1752,0.1102 -0.2932,0.055 -0.2623,-0.1234 0.141,-0.8133 -0.088,-1.2926 -0.6072,-1.2926 -0.3736,0 -0.4849,-0.2237 -0.3229,-0.6469 0.1664,-0.4342 0.099,-0.5543 -0.2071,-0.3659 -0.2722,0.1698 -0.454,0.044 -0.454,-0.3239 0,-0.3339 -0.1653,-0.6061 -0.3659,-0.6061 -0.8816,0 -0.7306,0.8738 0.4816,2.7957 3.0458,4.8299 9.8405,18.815 13.282,27.3321 1.6893,4.182 0.8915,3.6596 18.6739,12.2495 3.6343,1.7565 6.9579,3.3577 7.3854,3.5594 0.443,0.2071 0.2755,-0.066 -0.3879,-0.6249 -0.6413,-0.5454 -1.2981,-0.9917 -1.4579,-0.9928 -0.1608,0 -0.292,-0.2645 -0.292,-0.5852 0,-0.7097 -0.4507,-0.7493 -1.1207,-0.099 -0.4022,0.3912 -0.4738,0.335 -0.3691,-0.292 0.077,-0.4639 -0.066,-0.7383 -0.3571,-0.6799 -0.2667,0.055 -0.4848,-0.099 -0.4848,-0.3328 0,-0.2369 -0.2821,-0.3229 -0.6271,-0.1906 -0.422,0.162 -0.5609,0.066 -0.4264,-0.2788 0.119,-0.3108 -0.3339,-0.8067 -1.1229,-1.232 -0.7273,-0.3923 -1.3224,-0.8496 -1.3224,-1.0171 0,-0.9312 1.2067,-0.4331 5.8922,2.4287 8.8962,5.4349 11.0748,6.6493 23.2637,12.968 6.5214,3.3797 12.2021,6.3804 12.623,6.668 1.232,0.8375 1.4216,0.616 0.7824,-0.9136 z m -43.3988,-21.3881 c -0.077,-0.1697 -0.6061,-0.5697 -1.1813,-0.8904 -1.1405,-0.6358 -1.4193,-1.2518 -0.6777,-1.4986 0.2589,-0.088 0.3614,0.022 0.2259,0.2413 -0.1356,0.2182 0.011,0.4981 0.3339,0.6204 0.3196,0.1234 0.5807,0.044 0.5807,-0.1763 0,-0.2193 0.1785,-0.2898 0.3956,-0.1554 0.2171,0.1345 0.2954,0.4055 0.1741,0.6017 -0.1212,0.1972 0.033,0.2601 0.3428,0.141 0.7824,-0.2997 1.1416,0.4276 0.4826,0.9753 -0.2975,0.2468 -0.6028,0.3107 -0.6766,0.141 z m -3.4392,-2.6634 c 0,-0.3328 0.1774,-0.4959 0.3945,-0.3615 0.2182,0.1345 0.2953,0.4067 0.1719,0.6061 -0.3328,0.5389 -0.5664,0.4386 -0.5664,-0.2446 z m -2.0552,-0.9433 c -0.8243,-0.6204 -1.2948,-1.2177 -1.0689,-1.3576 0.2215,-0.1367 0.4033,-0.044 0.4033,0.2082 0,0.2656 0.3251,0.3725 0.778,0.2535 0.4276,-0.1113 0.6799,-0.044 0.5598,0.1488 -0.1201,0.1939 0.044,0.3526 0.3636,0.3526 0.3428,0 0.5576,0.3207 0.5235,0.778 -0.033,0.4275 -0.066,0.7658 -0.077,0.7504 0,-0.011 -0.6766,-0.5245 -1.4865,-1.1339 z m -274.777,0.9124 c 17.3615,-9.2268 26.6004,-13.2038 39.5882,-17.0408 11.1244,-3.2861 11.2159,-3.3158 9.4362,-3.08 -0.962,0.1278 -4.3737,0.8287 -7.5804,1.5593 -16.7312,3.8062 -28.7967,8.2691 -40.8081,15.0936 -4.3671,2.4817 -4.9148,2.5158 -6.7606,0.4133 -1.3279,-1.5119 -2.1753,-4.0332 -2.7582,-8.2064 -0.6557,-4.6922 -1.1406,-5.1506 -2.1687,-2.053 -0.7604,2.2888 -0.5444,6.376 0.465,8.7904 0.6017,1.4403 5.3798,6.7154 6.0818,6.7154 0.2093,0 2.2359,-0.9862 4.5048,-2.1918 z m 349.9169,0 c 0,-0.3207 -0.1752,-0.4749 -0.389,-0.3427 -0.2138,0.1322 -0.3879,0.5025 -0.3879,0.8243 0,0.3207 0.1741,0.4749 0.3879,0.3427 0.2138,-0.1322 0.389,-0.5036 0.389,-0.8243 z m -0.7769,-0.9675 c 0,-0.1906 -0.281,-0.3471 -0.6248,-0.3471 -0.3934,0 -0.5433,-0.2138 -0.4033,-0.5786 0.1289,-0.3339 0.022,-0.5388 -0.2501,-0.4859 -0.259,0.055 -0.4463,-0.2193 -0.4155,-0.6006 0.044,-0.5245 -0.1322,-0.6336 -0.7185,-0.4474 -0.649,0.2061 -0.7328,0.1135 -0.5168,-0.5675 0.2094,-0.6601 0.1311,-0.7648 -0.4176,-0.5543 -0.5158,0.1983 -0.6182,0.1102 -0.4309,-0.378 0.2953,-0.7725 -0.1477,-1.1207 -0.864,-0.6777 -0.3967,0.2446 -0.1333,0.7152 1.0877,1.9483 0.8849,0.8948 1.61,1.7874 1.61,1.9846 0,0.1962 0.1741,0.3571 0.389,0.3571 0.2137,0 0.3879,0.2578 0.3879,0.5708 0,0.3482 0.2281,0.4838 0.5829,0.3471 0.3218,-0.1223 0.584,-0.3791 0.584,-0.5708 z m -78.7224,-3.8459 c -0.1322,-0.2138 -0.4485,-0.3857 -0.7031,-0.3824 -0.2788,0 -0.2303,0.1565 0.1202,0.3824 0.7471,0.4827 0.8815,0.4827 0.5829,0 z m 73.8782,-1.5802 c 0.3581,-0.5796 -0.055,-0.8937 -0.8011,-0.6083 -0.3428,0.1322 -0.5158,0.4155 -0.3824,0.6314 0.3151,0.5091 0.8606,0.4992 1.1835,-0.022 z m -1.2309,-1.7114 c -0.1157,-0.3008 -0.4397,-0.4584 -0.7218,-0.3493 -0.3185,0.1212 -0.4904,-0.077 -0.454,-0.5113 0.033,-0.389 -0.1565,-0.6645 -0.421,-0.6116 -0.2633,0.055 -0.5884,-0.3416 -0.7218,-0.875 -0.1344,-0.5333 -0.487,-0.9697 -0.7846,-0.9697 -0.2975,0 -0.541,-0.2722 -0.541,-0.6061 0,-0.3438 -0.1863,-0.4914 -0.4298,-0.3394 -0.2931,0.1807 -0.3471,-0.033 -0.1697,-0.6578 0.1962,-0.6899 0.162,-0.778 -0.1311,-0.3516 -0.216,0.3141 -0.5147,0.4496 -0.6645,0.3009 -0.1488,-0.1488 -0.033,-0.5808 0.2523,-0.961 0.4452,-0.5873 0.4419,-0.6171 -0.022,-0.2027 -0.735,0.6557 -1.1659,0.6116 -1.1659,-0.1212 0,-0.3328 -0.1752,-0.497 -0.389,-0.3648 -0.2138,0.1311 -0.389,-0.033 -0.389,-0.3658 0,-0.3339 -0.1521,-0.5631 -0.3372,-0.5092 -0.1862,0.055 -0.6821,-0.325 -1.1042,-0.8408 -0.4969,-0.6071 -0.8617,-0.7857 -1.0347,-0.5058 -0.1521,0.2469 1.0832,1.8183 2.8761,3.6597 1.729,1.7742 3.7555,3.8866 4.5049,4.6922 1.2959,1.3962 2.2987,1.6617 1.8491,0.4903 z m -283.909,-22.5275 c 11.0605,-3.1627 17.7472,-5.7567 19.9236,-7.7281 2.1125,-1.9141 9.0967,-9.8946 11.045,-12.6231 2.6084,-3.6519 1.8623,-4.3891 -2.702,-2.6711 -7.1683,2.6987 -21.3672,11.3205 -29.4567,17.8882 -3.2574,2.6447 -6.6085,5.9352 -6.6085,6.4884 0,0.6766 1.7818,0.367 7.7986,-1.3543 z m 21.5523,-3.9296 c 14.0854,-12.3972 22.5176,-18.9517 31.4766,-24.467 l 5.2013,-3.2035 -3.5285,-3.556 c -3.8459,-3.8745 -7.1418,-5.8955 -9.5959,-5.8823 -2.7759,0.011 -9.6345,1.1328 -13.0572,2.1279 -4.6052,1.3378 -6.1358,2.1191 -6.2879,3.21 -0.1565,1.1185 0.055,1.1053 4.6966,-0.2953 4.582,-1.3808 10.0279,-2.1158 13.2534,-1.7885 2.8111,0.2854 6.484,1.9946 8.2857,3.8547 l 1.2871,1.3301 -4.7859,3.3521 c -2.6326,1.8447 -5.3423,3.836 -6.0211,4.4278 -0.6777,0.5906 -2.615,2.2601 -4.3043,3.7103 -2.9191,2.507 -22.7402,22.3182 -20.7016,20.6905 0.5345,-0.4253 2.3703,-2.0055 4.0817,-3.5108 z m 168.2596,-2.3847 c 0.3526,-0.3515 -0.519,-1.3422 -0.9477,-1.0766 -0.5356,0.3306 -0.4055,1.3334 0.1741,1.3334 0.2854,0 0.6336,-0.1157 0.7736,-0.2568 z m -0.9764,-1.6629 c 0.099,-0.292 -0.044,-0.4374 -0.3394,-0.3405 -0.281,0.088 -0.5873,0.4001 -0.681,0.68 -0.099,0.292 0.044,0.4374 0.3405,0.3405 0.281,-0.099 0.5863,-0.4001 0.6799,-0.68 z m -0.7041,-1.0292 c 0,-0.6865 -0.8375,-0.5664 -1.0777,0.1543 -0.088,0.2534 0.1234,0.4617 0.4617,0.4617 0.3383,0 0.616,-0.2766 0.616,-0.616 z m -0.778,-0.9763 c 0,-0.5698 -1.589,-2.7792 -1.8271,-2.5412 -0.3515,0.3516 0.8155,2.9676 1.3224,2.9676 0.2777,0 0.5047,-0.1917 0.5047,-0.4264 z m 3.7489,-16.5307 c 2.6557,-1.0391 4.9853,-1.7036 5.9694,-1.7036 1.8733,0 5.8955,1.2827 10.2538,3.2695 1.6838,0.7681 3.1924,1.3962 3.3533,1.3962 0.1597,0 0.292,-0.4077 0.292,-0.9058 0,-2.2634 -12.2892,-8.0444 -15.7604,-7.4151 -3.6265,0.6578 -8.1678,2.713 -12.6164,5.7104 -2.5136,1.6937 -4.5699,3.2475 -4.5699,3.4535 0,0.2061 0.1796,0.7108 0.4011,1.1229 0.3791,0.7108 0.6072,0.6458 4.3605,-1.2375 2.1786,-1.0931 5.9209,-2.7538 8.3166,-3.6905 z m -13.2005,-0.8948 c 2.2524,-1.2661 5.7391,-2.8805 7.7491,-3.5869 2.0088,-0.7063 3.5957,-1.4557 3.5263,-1.665 -0.6711,-2.0133 -13.778,-0.5169 -19.0586,2.1774 -1.5196,0.7747 -1.6067,0.7769 -4.074,0.1102 l -2.5224,-0.6821 1.3224,-1.1196 c 1.8403,-1.5571 3.5803,-2.4254 6.9633,-3.4745 2.4563,-0.7614 3.7721,-0.9047 8.4191,-0.9135 3.0282,0 5.4778,-0.033 5.4426,-0.055 -0.13,-0.088 -8.3485,-2.4166 -12.8941,-3.6464 -2.5654,-0.6943 -5.8361,-1.5957 -7.2675,-2.0023 -4.7716,-1.3565 -19.7286,-4.5952 -25.1194,-5.4382 -3.2144,-0.5025 -7.3226,-0.8485 -10.375,-0.8717 -10.8302,-0.088 -50.825,0.6006 -55.98,0.9587 -6.0554,0.421 -12.925,1.6045 -11.6633,2.0078 1.2485,0.3989 12.1217,1.7852 15.9389,2.0309 31.9681,2.0618 44.968,3.3203 58.1718,5.6322 6.084,1.0656 16.9626,3.4018 19.9666,4.2878 0.6424,0.1884 2.4519,0.7162 4.0222,1.1725 4.9996,1.4513 2.7229,1.2463 -4.0685,-0.367 -8.8389,-2.0981 -15.5102,-3.2927 -25.0279,-4.4795 -16.7466,-2.0882 -37.1242,-2.9125 -55.007,-2.2249 -8.7033,0.3339 -12.0897,0.3449 -12.1922,0.033 -0.2688,-0.8056 -7.0349,-3.7963 -9.2003,-4.0674 -2.3406,-0.292 -4.993,0.055 -4.6514,0.6061 0.1201,0.1951 1.8315,1.3047 3.8007,2.4651 1.9703,1.1604 4.6767,2.9169 6.0134,3.9021 2.9125,2.1477 2.3682,2.1125 16.0348,1.0138 13.3492,-1.0722 32.3923,-1.0678 43.9288,0.011 18.7148,1.751 37.8979,5.4272 51.3143,9.8329 0.9631,0.3162 1.8943,0.5917 2.0706,0.6138 0.1774,0.022 2.1643,-0.9973 4.4167,-2.2635 z m -21.365,-18.1483 c -0.1289,-0.1289 -0.4639,-0.1432 -0.7449,-0.033 -0.3096,0.1245 -0.2182,0.2159 0.2347,0.2347 0.41,0.022 0.6403,-0.077 0.5102,-0.2039 z m -295.3441,188.2493 c 0,-0.422 2.3197,-4.9137 2.5379,-4.9137 0.1102,0 -0.3538,1.0943 -1.0238,2.4299 -1.2694,2.5334 -1.5141,2.9345 -1.5141,2.4838 z m 3.1098,-6.0796 c 0.2292,-0.4275 0.5036,-0.7779 0.6105,-0.7779 0.1102,0 0,0.3504 -0.2215,0.7779 -0.2292,0.4276 -0.5036,0.778 -0.6105,0.778 -0.1102,0 0,-0.3504 0.2215,-0.778 z m 1.3609,-2.3328 c 0.3317,-0.6414 0.6898,-1.1659 0.7967,-1.1659 0.1102,0 -0.077,0.5245 -0.4088,1.1659 -0.3317,0.6413 -0.6898,1.167 -0.7967,1.167 -0.1102,0 0.077,-0.5257 0.4088,-1.167 z m 1.7125,-3.0381 c 0.4165,-0.8166 1.0557,-1.7323 1.4215,-2.0354 0.3648,-0.303 0.099,0.3648 -0.5884,1.4844 -1.4635,2.3791 -1.9197,2.68 -0.8331,0.551 z m 4.1577,-6.5248 c -0.1388,-0.3603 -0.1642,-0.7427 -0.055,-0.8496 0.1102,-0.1102 0.3075,0.099 0.4452,0.4606 0.1388,0.3603 0.1642,0.7438 0.055,0.8507 -0.1102,0.1102 -0.3075,-0.099 -0.4452,-0.4617 z m 0.7593,-0.8992 c -0.3571,-0.5763 0.1256,-1.275 0.6545,-0.9477 0.2755,0.1697 0.3394,0.033 0.1796,-0.3824 -0.1355,-0.3559 -0.077,-0.6479 0.129,-0.6479 0.2071,0 0.3769,-0.1753 0.3769,-0.389 0,-0.8045 2.1576,-3.7666 2.6237,-3.6035 0.3108,0.1102 0.4012,-0.055 0.2491,-0.4474 -0.1521,-0.3978 0.5135,-1.5482 1.8766,-3.2398 3.0073,-3.7323 3.0944,-3.9053 5.3876,-10.7849 1.1416,-3.4216 2.3009,-6.4521 2.5775,-6.7342 0.6413,-0.6556 0.6633,-0.8419 -0.4419,3.663 -0.5191,2.1169 -1.167,5.3214 -1.4381,7.1231 l -0.4937,3.2751 -3.7125,4.1401 c -2.042,2.2777 -4.4916,5.177 -5.4415,6.4443 -2.3362,3.1119 -2.2326,3.0072 -2.5268,2.5312 z m 28.552,-59.5129 c 0.2292,-0.4276 0.5036,-0.7769 0.6105,-0.7769 0.1102,0 0,0.3493 -0.2215,0.7769 -0.2293,0.4275 -0.5036,0.778 -0.6105,0.778 -0.1102,0 0,-0.3505 0.2215,-0.778 z m 1.5967,-2.6238 c 1.0821,-1.7863 4.2073,-5.9286 4.474,-5.9286 0.1102,0 -0.5697,1.0061 -1.5042,2.2359 -0.9344,1.2287 -2.0959,2.8916 -2.5808,3.6927 -0.486,0.8022 -0.9708,1.4579 -1.0777,1.4579 -0.1102,0 0.2027,-0.6557 0.6887,-1.4579 z m 4.9974,-6.8829 c 0.259,-0.3119 0.3593,-0.7471 0.2226,-0.9675 -0.1498,-0.2425 0,-0.3064 0.3714,-0.1631 0.562,0.2149 0.5576,0.3074 -0.044,0.9675 -0.7736,0.854 -1.2419,0.9929 -0.5543,0.1631 z m 1.9142,-2.3053 c 0.4518,-0.616 0.822,-1.3411 0.822,-1.61 0,-0.2689 0.2634,-0.5907 0.5863,-0.7141 0.3229,-0.1245 0.541,-0.4408 0.4859,-0.7052 -0.055,-0.2634 0.099,-0.486 0.3527,-0.4959 0.2501,0 0.5994,-0.1774 0.778,-0.3714 0.1884,-0.2061 0.1201,-0.2369 -0.162,-0.077 -0.2678,0.1542 -0.486,0.088 -0.486,-0.1444 0,-0.2325 0.2623,-0.5245 0.583,-0.6468 0.3206,-0.1235 0.5829,-0.4684 0.5829,-0.7659 0,-0.2975 0.2623,-0.5411 0.5829,-0.5411 0.3207,0 0.5907,-0.2193 0.5995,-0.4859 0.022,-0.7769 2.6172,-3.5021 3.0657,-3.2255 0.2292,0.1421 0.3251,0.033 0.2182,-0.2535 -0.099,-0.2788 0.8209,-1.6044 2.0551,-2.9455 2.0883,-2.2712 2.2976,-2.4012 3.0128,-1.8734 0.7328,0.54 0.562,0.7758 -3.7191,5.1606 -2.4673,2.5268 -5.7666,5.9947 -7.3325,7.7049 -1.5648,1.7103 -2.4761,2.6051 -2.0254,1.988 z" id="path70" /></g></svg>